<mxfile host="app.diagrams.net" modified="2021-12-13T08:43:49.092Z" agent="5.0 (Macintosh; Intel Mac OS X 10_15_6) AppleWebKit/605.1.15 (KHTML, like Gecko) Version/14.1.1 Safari/605.1.15" etag="AWhuJEdsw3Ryfk4Mb_Sm" version="15.8.3" type="github">
  <diagram id="sKDaYnK1d5ipRAaSlijB" name="Page-1">
    <mxGraphModel dx="2397" dy="1204" grid="1" gridSize="10" guides="1" tooltips="1" connect="1" arrows="1" fold="1" page="1" pageScale="1" pageWidth="850" pageHeight="1100" math="0" shadow="0">
      <root>
        <mxCell id="0" />
        <mxCell id="1" parent="0" />
        <mxCell id="mPMTFJL_Vb9YS9UuzuNP-239" value="" style="group" parent="1" vertex="1" connectable="0">
          <mxGeometry x="770" y="40" width="160" height="310" as="geometry" />
        </mxCell>
        <mxCell id="mPMTFJL_Vb9YS9UuzuNP-240" value="" style="group" parent="mPMTFJL_Vb9YS9UuzuNP-239" vertex="1" connectable="0">
          <mxGeometry width="160" height="310" as="geometry" />
        </mxCell>
        <mxCell id="mPMTFJL_Vb9YS9UuzuNP-241" value="Generic group" style="fillColor=#EFF0F3;strokeColor=none;dashed=0;verticalAlign=top;fontStyle=0;fontColor=#232F3D;" parent="mPMTFJL_Vb9YS9UuzuNP-240" vertex="1">
          <mxGeometry width="163" height="310" as="geometry" />
        </mxCell>
        <mxCell id="mPMTFJL_Vb9YS9UuzuNP-242" value="" style="strokeColor=#dddddd;shadow=1;strokeWidth=1;rounded=1;absoluteArcSize=1;arcSize=2;" parent="mPMTFJL_Vb9YS9UuzuNP-240" vertex="1">
          <mxGeometry width="160" height="62.00000000000001" as="geometry" />
        </mxCell>
        <mxCell id="mPMTFJL_Vb9YS9UuzuNP-243" value="&lt;font color=&quot;#000000&quot;&gt;&lt;span&gt;Kafka Consumer&lt;/span&gt;&lt;/font&gt;&lt;br&gt;Golang - gRPC&amp;nbsp;" style="sketch=0;dashed=0;connectable=0;html=1;fillColor=#5184F3;strokeColor=none;shape=mxgraph.gcp2.hexIcon;prIcon=container_engine;part=1;labelPosition=right;verticalLabelPosition=middle;align=left;verticalAlign=middle;spacingLeft=5;fontColor=#999999;fontSize=12;" parent="mPMTFJL_Vb9YS9UuzuNP-242" vertex="1">
          <mxGeometry y="0.5" width="44" height="39" relative="1" as="geometry">
            <mxPoint x="5" y="-19.5" as="offset" />
          </mxGeometry>
        </mxCell>
        <mxCell id="mPMTFJL_Vb9YS9UuzuNP-244" value="" style="group" parent="mPMTFJL_Vb9YS9UuzuNP-239" vertex="1" connectable="0">
          <mxGeometry x="50" y="150" width="60" height="60" as="geometry" />
        </mxCell>
        <mxCell id="mPMTFJL_Vb9YS9UuzuNP-245" value="" style="sketch=0;html=1;dashed=0;whitespace=wrap;fillColor=#2875E2;strokeColor=#ffffff;points=[[0.005,0.63,0],[0.1,0.2,0],[0.9,0.2,0],[0.5,0,0],[0.995,0.63,0],[0.72,0.99,0],[0.5,1,0],[0.28,0.99,0]];shape=mxgraph.kubernetes.icon;prIcon=deploy" parent="mPMTFJL_Vb9YS9UuzuNP-244" vertex="1">
          <mxGeometry x="5" width="50" height="48" as="geometry" />
        </mxCell>
        <mxCell id="mPMTFJL_Vb9YS9UuzuNP-246" value="Deployment" style="text;html=1;strokeColor=none;fillColor=none;align=center;verticalAlign=middle;whiteSpace=wrap;rounded=0;" parent="mPMTFJL_Vb9YS9UuzuNP-244" vertex="1">
          <mxGeometry y="48" width="60" height="12" as="geometry" />
        </mxCell>
        <mxCell id="mPMTFJL_Vb9YS9UuzuNP-247" value="" style="group" parent="mPMTFJL_Vb9YS9UuzuNP-239" vertex="1" connectable="0">
          <mxGeometry x="80" y="240" width="60" height="59" as="geometry" />
        </mxCell>
        <mxCell id="mPMTFJL_Vb9YS9UuzuNP-248" value="" style="sketch=0;html=1;dashed=0;whitespace=wrap;fillColor=#2875E2;strokeColor=#ffffff;points=[[0.005,0.63,0],[0.1,0.2,0],[0.9,0.2,0],[0.5,0,0],[0.995,0.63,0],[0.72,0.99,0],[0.5,1,0],[0.28,0.99,0]];shape=mxgraph.kubernetes.icon;prIcon=pod" parent="mPMTFJL_Vb9YS9UuzuNP-247" vertex="1">
          <mxGeometry x="5" width="50" height="48" as="geometry" />
        </mxCell>
        <mxCell id="mPMTFJL_Vb9YS9UuzuNP-249" value="Pod 2" style="text;html=1;strokeColor=none;fillColor=none;align=center;verticalAlign=middle;whiteSpace=wrap;rounded=0;" parent="mPMTFJL_Vb9YS9UuzuNP-247" vertex="1">
          <mxGeometry y="49" width="60" height="10" as="geometry" />
        </mxCell>
        <mxCell id="mPMTFJL_Vb9YS9UuzuNP-250" value="" style="group" parent="mPMTFJL_Vb9YS9UuzuNP-239" vertex="1" connectable="0">
          <mxGeometry x="20" y="240" width="60" height="60" as="geometry" />
        </mxCell>
        <mxCell id="mPMTFJL_Vb9YS9UuzuNP-251" value="" style="sketch=0;html=1;dashed=0;whitespace=wrap;fillColor=#2875E2;strokeColor=#ffffff;points=[[0.005,0.63,0],[0.1,0.2,0],[0.9,0.2,0],[0.5,0,0],[0.995,0.63,0],[0.72,0.99,0],[0.5,1,0],[0.28,0.99,0]];shape=mxgraph.kubernetes.icon;prIcon=pod" parent="mPMTFJL_Vb9YS9UuzuNP-250" vertex="1">
          <mxGeometry x="5" width="50" height="48" as="geometry" />
        </mxCell>
        <mxCell id="mPMTFJL_Vb9YS9UuzuNP-252" value="Pod 1" style="text;html=1;strokeColor=none;fillColor=none;align=center;verticalAlign=middle;whiteSpace=wrap;rounded=0;" parent="mPMTFJL_Vb9YS9UuzuNP-250" vertex="1">
          <mxGeometry y="48" width="60" height="12" as="geometry" />
        </mxCell>
        <mxCell id="mPMTFJL_Vb9YS9UuzuNP-253" value="" style="group" parent="mPMTFJL_Vb9YS9UuzuNP-239" vertex="1" connectable="0">
          <mxGeometry x="38" y="70" width="85" height="58" as="geometry" />
        </mxCell>
        <mxCell id="mPMTFJL_Vb9YS9UuzuNP-254" value="" style="sketch=0;html=1;dashed=0;whitespace=wrap;fillColor=#2875E2;strokeColor=#ffffff;points=[[0.005,0.63,0],[0.1,0.2,0],[0.9,0.2,0],[0.5,0,0],[0.995,0.63,0],[0.72,0.99,0],[0.5,1,0],[0.28,0.99,0]];shape=mxgraph.kubernetes.icon;prIcon=svc" parent="mPMTFJL_Vb9YS9UuzuNP-253" vertex="1">
          <mxGeometry x="17.5" width="50" height="48" as="geometry" />
        </mxCell>
        <mxCell id="mPMTFJL_Vb9YS9UuzuNP-255" value="Cluster IP" style="text;html=1;strokeColor=none;fillColor=none;align=center;verticalAlign=middle;whiteSpace=wrap;rounded=0;" parent="mPMTFJL_Vb9YS9UuzuNP-253" vertex="1">
          <mxGeometry y="48" width="85" height="10" as="geometry" />
        </mxCell>
        <mxCell id="mPMTFJL_Vb9YS9UuzuNP-256" style="edgeStyle=orthogonalEdgeStyle;rounded=0;orthogonalLoop=1;jettySize=auto;html=1;entryX=0.5;entryY=0;entryDx=0;entryDy=0;entryPerimeter=0;" parent="mPMTFJL_Vb9YS9UuzuNP-239" target="mPMTFJL_Vb9YS9UuzuNP-248" edge="1">
          <mxGeometry relative="1" as="geometry">
            <mxPoint x="80" y="213.9999999999999" as="sourcePoint" />
            <Array as="points">
              <mxPoint x="80" y="220" />
              <mxPoint x="110" y="220" />
            </Array>
          </mxGeometry>
        </mxCell>
        <mxCell id="mPMTFJL_Vb9YS9UuzuNP-257" style="edgeStyle=orthogonalEdgeStyle;rounded=0;orthogonalLoop=1;jettySize=auto;html=1;entryX=0.5;entryY=0;entryDx=0;entryDy=0;entryPerimeter=0;" parent="mPMTFJL_Vb9YS9UuzuNP-239" target="mPMTFJL_Vb9YS9UuzuNP-251" edge="1">
          <mxGeometry relative="1" as="geometry">
            <mxPoint x="80" y="218" as="sourcePoint" />
            <Array as="points">
              <mxPoint x="80" y="220" />
              <mxPoint x="50" y="220" />
            </Array>
          </mxGeometry>
        </mxCell>
        <mxCell id="mPMTFJL_Vb9YS9UuzuNP-258" style="edgeStyle=orthogonalEdgeStyle;rounded=0;orthogonalLoop=1;jettySize=auto;html=1;" parent="mPMTFJL_Vb9YS9UuzuNP-239" edge="1">
          <mxGeometry relative="1" as="geometry">
            <mxPoint x="80.5" y="150" as="targetPoint" />
            <mxPoint x="81" y="130" as="sourcePoint" />
          </mxGeometry>
        </mxCell>
        <mxCell id="mPMTFJL_Vb9YS9UuzuNP-259" value="" style="group" parent="1" vertex="1" connectable="0">
          <mxGeometry x="950" y="40" width="160" height="310" as="geometry" />
        </mxCell>
        <mxCell id="mPMTFJL_Vb9YS9UuzuNP-260" value="" style="group" parent="mPMTFJL_Vb9YS9UuzuNP-259" vertex="1" connectable="0">
          <mxGeometry width="160" height="310" as="geometry" />
        </mxCell>
        <mxCell id="mPMTFJL_Vb9YS9UuzuNP-261" value="Generic group" style="fillColor=#EFF0F3;strokeColor=none;dashed=0;verticalAlign=top;fontStyle=0;fontColor=#232F3D;" parent="mPMTFJL_Vb9YS9UuzuNP-260" vertex="1">
          <mxGeometry width="163" height="310" as="geometry" />
        </mxCell>
        <mxCell id="mPMTFJL_Vb9YS9UuzuNP-262" value="" style="strokeColor=#dddddd;shadow=1;strokeWidth=1;rounded=1;absoluteArcSize=1;arcSize=2;" parent="mPMTFJL_Vb9YS9UuzuNP-260" vertex="1">
          <mxGeometry width="160" height="62.00000000000001" as="geometry" />
        </mxCell>
        <mxCell id="mPMTFJL_Vb9YS9UuzuNP-263" value="&lt;font color=&quot;#000000&quot;&gt;&lt;span&gt;Rabbit Consumer&lt;/span&gt;&lt;/font&gt;&lt;br&gt;Python - gRPC&amp;nbsp;" style="sketch=0;dashed=0;connectable=0;html=1;fillColor=#5184F3;strokeColor=none;shape=mxgraph.gcp2.hexIcon;prIcon=container_engine;part=1;labelPosition=right;verticalLabelPosition=middle;align=left;verticalAlign=middle;spacingLeft=5;fontColor=#999999;fontSize=12;" parent="mPMTFJL_Vb9YS9UuzuNP-262" vertex="1">
          <mxGeometry y="0.5" width="44" height="39" relative="1" as="geometry">
            <mxPoint x="5" y="-19.5" as="offset" />
          </mxGeometry>
        </mxCell>
        <mxCell id="mPMTFJL_Vb9YS9UuzuNP-264" value="" style="group" parent="mPMTFJL_Vb9YS9UuzuNP-259" vertex="1" connectable="0">
          <mxGeometry x="50" y="150" width="60" height="60" as="geometry" />
        </mxCell>
        <mxCell id="mPMTFJL_Vb9YS9UuzuNP-265" value="" style="sketch=0;html=1;dashed=0;whitespace=wrap;fillColor=#2875E2;strokeColor=#ffffff;points=[[0.005,0.63,0],[0.1,0.2,0],[0.9,0.2,0],[0.5,0,0],[0.995,0.63,0],[0.72,0.99,0],[0.5,1,0],[0.28,0.99,0]];shape=mxgraph.kubernetes.icon;prIcon=deploy" parent="mPMTFJL_Vb9YS9UuzuNP-264" vertex="1">
          <mxGeometry x="5" width="50" height="48" as="geometry" />
        </mxCell>
        <mxCell id="mPMTFJL_Vb9YS9UuzuNP-266" value="Deployment" style="text;html=1;strokeColor=none;fillColor=none;align=center;verticalAlign=middle;whiteSpace=wrap;rounded=0;" parent="mPMTFJL_Vb9YS9UuzuNP-264" vertex="1">
          <mxGeometry y="48" width="60" height="12" as="geometry" />
        </mxCell>
        <mxCell id="mPMTFJL_Vb9YS9UuzuNP-267" value="" style="group" parent="mPMTFJL_Vb9YS9UuzuNP-259" vertex="1" connectable="0">
          <mxGeometry x="80" y="240" width="60" height="59" as="geometry" />
        </mxCell>
        <mxCell id="mPMTFJL_Vb9YS9UuzuNP-268" value="" style="sketch=0;html=1;dashed=0;whitespace=wrap;fillColor=#2875E2;strokeColor=#ffffff;points=[[0.005,0.63,0],[0.1,0.2,0],[0.9,0.2,0],[0.5,0,0],[0.995,0.63,0],[0.72,0.99,0],[0.5,1,0],[0.28,0.99,0]];shape=mxgraph.kubernetes.icon;prIcon=pod" parent="mPMTFJL_Vb9YS9UuzuNP-267" vertex="1">
          <mxGeometry x="5" width="50" height="48" as="geometry" />
        </mxCell>
        <mxCell id="mPMTFJL_Vb9YS9UuzuNP-269" value="Pod 2" style="text;html=1;strokeColor=none;fillColor=none;align=center;verticalAlign=middle;whiteSpace=wrap;rounded=0;" parent="mPMTFJL_Vb9YS9UuzuNP-267" vertex="1">
          <mxGeometry y="49" width="60" height="10" as="geometry" />
        </mxCell>
        <mxCell id="mPMTFJL_Vb9YS9UuzuNP-270" value="" style="group" parent="mPMTFJL_Vb9YS9UuzuNP-259" vertex="1" connectable="0">
          <mxGeometry x="20" y="240" width="60" height="60" as="geometry" />
        </mxCell>
        <mxCell id="mPMTFJL_Vb9YS9UuzuNP-271" value="" style="sketch=0;html=1;dashed=0;whitespace=wrap;fillColor=#2875E2;strokeColor=#ffffff;points=[[0.005,0.63,0],[0.1,0.2,0],[0.9,0.2,0],[0.5,0,0],[0.995,0.63,0],[0.72,0.99,0],[0.5,1,0],[0.28,0.99,0]];shape=mxgraph.kubernetes.icon;prIcon=pod" parent="mPMTFJL_Vb9YS9UuzuNP-270" vertex="1">
          <mxGeometry x="5" width="50" height="48" as="geometry" />
        </mxCell>
        <mxCell id="mPMTFJL_Vb9YS9UuzuNP-272" value="Pod 1" style="text;html=1;strokeColor=none;fillColor=none;align=center;verticalAlign=middle;whiteSpace=wrap;rounded=0;" parent="mPMTFJL_Vb9YS9UuzuNP-270" vertex="1">
          <mxGeometry y="48" width="60" height="12" as="geometry" />
        </mxCell>
        <mxCell id="mPMTFJL_Vb9YS9UuzuNP-273" value="" style="group" parent="mPMTFJL_Vb9YS9UuzuNP-259" vertex="1" connectable="0">
          <mxGeometry x="38" y="70" width="85" height="58" as="geometry" />
        </mxCell>
        <mxCell id="mPMTFJL_Vb9YS9UuzuNP-274" value="" style="sketch=0;html=1;dashed=0;whitespace=wrap;fillColor=#2875E2;strokeColor=#ffffff;points=[[0.005,0.63,0],[0.1,0.2,0],[0.9,0.2,0],[0.5,0,0],[0.995,0.63,0],[0.72,0.99,0],[0.5,1,0],[0.28,0.99,0]];shape=mxgraph.kubernetes.icon;prIcon=svc" parent="mPMTFJL_Vb9YS9UuzuNP-273" vertex="1">
          <mxGeometry x="17.5" width="50" height="48" as="geometry" />
        </mxCell>
        <mxCell id="mPMTFJL_Vb9YS9UuzuNP-275" value="Cluster IP" style="text;html=1;strokeColor=none;fillColor=none;align=center;verticalAlign=middle;whiteSpace=wrap;rounded=0;" parent="mPMTFJL_Vb9YS9UuzuNP-273" vertex="1">
          <mxGeometry y="48" width="85" height="10" as="geometry" />
        </mxCell>
        <mxCell id="mPMTFJL_Vb9YS9UuzuNP-276" style="edgeStyle=orthogonalEdgeStyle;rounded=0;orthogonalLoop=1;jettySize=auto;html=1;entryX=0.5;entryY=0;entryDx=0;entryDy=0;entryPerimeter=0;" parent="mPMTFJL_Vb9YS9UuzuNP-259" target="mPMTFJL_Vb9YS9UuzuNP-268" edge="1">
          <mxGeometry relative="1" as="geometry">
            <mxPoint x="80" y="213.9999999999999" as="sourcePoint" />
            <Array as="points">
              <mxPoint x="80" y="220" />
              <mxPoint x="110" y="220" />
            </Array>
          </mxGeometry>
        </mxCell>
        <mxCell id="mPMTFJL_Vb9YS9UuzuNP-277" style="edgeStyle=orthogonalEdgeStyle;rounded=0;orthogonalLoop=1;jettySize=auto;html=1;entryX=0.5;entryY=0;entryDx=0;entryDy=0;entryPerimeter=0;" parent="mPMTFJL_Vb9YS9UuzuNP-259" target="mPMTFJL_Vb9YS9UuzuNP-271" edge="1">
          <mxGeometry relative="1" as="geometry">
            <mxPoint x="80" y="218" as="sourcePoint" />
            <Array as="points">
              <mxPoint x="80" y="220" />
              <mxPoint x="50" y="220" />
            </Array>
          </mxGeometry>
        </mxCell>
        <mxCell id="mPMTFJL_Vb9YS9UuzuNP-278" style="edgeStyle=orthogonalEdgeStyle;rounded=0;orthogonalLoop=1;jettySize=auto;html=1;" parent="mPMTFJL_Vb9YS9UuzuNP-259" edge="1">
          <mxGeometry relative="1" as="geometry">
            <mxPoint x="80.5" y="150" as="targetPoint" />
            <mxPoint x="81" y="130" as="sourcePoint" />
          </mxGeometry>
        </mxCell>
        <mxCell id="mPMTFJL_Vb9YS9UuzuNP-299" value="" style="group" parent="1" vertex="1" connectable="0">
          <mxGeometry x="-360" y="70" width="160" height="310" as="geometry" />
        </mxCell>
        <mxCell id="mPMTFJL_Vb9YS9UuzuNP-300" value="" style="group" parent="mPMTFJL_Vb9YS9UuzuNP-299" vertex="1" connectable="0">
          <mxGeometry width="160" height="310" as="geometry" />
        </mxCell>
        <mxCell id="mPMTFJL_Vb9YS9UuzuNP-301" value="Generic group" style="fillColor=#EFF0F3;strokeColor=none;dashed=0;verticalAlign=top;fontStyle=0;fontColor=#232F3D;" parent="mPMTFJL_Vb9YS9UuzuNP-300" vertex="1">
          <mxGeometry width="163" height="310" as="geometry" />
        </mxCell>
        <mxCell id="mPMTFJL_Vb9YS9UuzuNP-302" value="" style="strokeColor=#dddddd;shadow=1;strokeWidth=1;rounded=1;absoluteArcSize=1;arcSize=2;" parent="mPMTFJL_Vb9YS9UuzuNP-300" vertex="1">
          <mxGeometry width="160" height="62.00000000000001" as="geometry" />
        </mxCell>
        <mxCell id="mPMTFJL_Vb9YS9UuzuNP-303" value="&lt;font color=&quot;#000000&quot;&gt;&lt;span&gt;Kafka Cluster&lt;/span&gt;&lt;/font&gt;&lt;br&gt;Kafka&amp;nbsp;" style="sketch=0;dashed=0;connectable=0;html=1;fillColor=#5184F3;strokeColor=none;shape=mxgraph.gcp2.hexIcon;prIcon=container_engine;part=1;labelPosition=right;verticalLabelPosition=middle;align=left;verticalAlign=middle;spacingLeft=5;fontColor=#999999;fontSize=12;" parent="mPMTFJL_Vb9YS9UuzuNP-302" vertex="1">
          <mxGeometry y="0.5" width="44" height="39" relative="1" as="geometry">
            <mxPoint x="5" y="-19.5" as="offset" />
          </mxGeometry>
        </mxCell>
        <mxCell id="mPMTFJL_Vb9YS9UuzuNP-304" value="" style="group" parent="mPMTFJL_Vb9YS9UuzuNP-300" vertex="1" connectable="0">
          <mxGeometry x="50" y="240" width="60" height="60" as="geometry" />
        </mxCell>
        <mxCell id="mPMTFJL_Vb9YS9UuzuNP-305" value="" style="sketch=0;html=1;dashed=0;whitespace=wrap;fillColor=#2875E2;strokeColor=#ffffff;points=[[0.005,0.63,0],[0.1,0.2,0],[0.9,0.2,0],[0.5,0,0],[0.995,0.63,0],[0.72,0.99,0],[0.5,1,0],[0.28,0.99,0]];shape=mxgraph.kubernetes.icon;prIcon=pod" parent="mPMTFJL_Vb9YS9UuzuNP-304" vertex="1">
          <mxGeometry x="5" width="50" height="48" as="geometry" />
        </mxCell>
        <mxCell id="mPMTFJL_Vb9YS9UuzuNP-306" value="Broker 1" style="text;html=1;strokeColor=none;fillColor=none;align=center;verticalAlign=middle;whiteSpace=wrap;rounded=0;" parent="mPMTFJL_Vb9YS9UuzuNP-304" vertex="1">
          <mxGeometry y="48" width="60" height="12" as="geometry" />
        </mxCell>
        <mxCell id="mPMTFJL_Vb9YS9UuzuNP-316" value="" style="sketch=0;html=1;dashed=0;whitespace=wrap;fillColor=#2875E2;strokeColor=#ffffff;points=[[0.005,0.63,0],[0.1,0.2,0],[0.9,0.2,0],[0.5,0,0],[0.995,0.63,0],[0.72,0.99,0],[0.5,1,0],[0.28,0.99,0]];shape=mxgraph.kubernetes.icon;prIcon=sts" parent="mPMTFJL_Vb9YS9UuzuNP-300" vertex="1">
          <mxGeometry x="55" y="150" width="50" height="48" as="geometry" />
        </mxCell>
        <mxCell id="mPMTFJL_Vb9YS9UuzuNP-317" value="StatefulSet" style="text;html=1;strokeColor=none;fillColor=none;align=center;verticalAlign=middle;whiteSpace=wrap;rounded=0;" parent="mPMTFJL_Vb9YS9UuzuNP-300" vertex="1">
          <mxGeometry x="50" y="198" width="60" height="12" as="geometry" />
        </mxCell>
        <mxCell id="mPMTFJL_Vb9YS9UuzuNP-310" value="" style="group" parent="mPMTFJL_Vb9YS9UuzuNP-299" vertex="1" connectable="0">
          <mxGeometry x="38" y="70" width="85" height="58" as="geometry" />
        </mxCell>
        <mxCell id="mPMTFJL_Vb9YS9UuzuNP-311" value="" style="sketch=0;html=1;dashed=0;whitespace=wrap;fillColor=#2875E2;strokeColor=#ffffff;points=[[0.005,0.63,0],[0.1,0.2,0],[0.9,0.2,0],[0.5,0,0],[0.995,0.63,0],[0.72,0.99,0],[0.5,1,0],[0.28,0.99,0]];shape=mxgraph.kubernetes.icon;prIcon=svc" parent="mPMTFJL_Vb9YS9UuzuNP-310" vertex="1">
          <mxGeometry x="17.5" width="50" height="48" as="geometry" />
        </mxCell>
        <mxCell id="mPMTFJL_Vb9YS9UuzuNP-312" value="Load Balancer" style="text;html=1;strokeColor=none;fillColor=none;align=center;verticalAlign=middle;whiteSpace=wrap;rounded=0;" parent="mPMTFJL_Vb9YS9UuzuNP-310" vertex="1">
          <mxGeometry y="48" width="85" height="10" as="geometry" />
        </mxCell>
        <mxCell id="mPMTFJL_Vb9YS9UuzuNP-313" style="edgeStyle=orthogonalEdgeStyle;rounded=0;orthogonalLoop=1;jettySize=auto;html=1;entryX=0.5;entryY=0;entryDx=0;entryDy=0;entryPerimeter=0;" parent="mPMTFJL_Vb9YS9UuzuNP-299" target="mPMTFJL_Vb9YS9UuzuNP-305" edge="1">
          <mxGeometry relative="1" as="geometry">
            <mxPoint x="80" y="218" as="sourcePoint" />
            <Array as="points">
              <mxPoint x="80" y="230" />
              <mxPoint x="80" y="230" />
            </Array>
          </mxGeometry>
        </mxCell>
        <mxCell id="mPMTFJL_Vb9YS9UuzuNP-314" style="edgeStyle=orthogonalEdgeStyle;rounded=0;orthogonalLoop=1;jettySize=auto;html=1;" parent="mPMTFJL_Vb9YS9UuzuNP-299" edge="1">
          <mxGeometry relative="1" as="geometry">
            <mxPoint x="80.5" y="150" as="targetPoint" />
            <mxPoint x="81" y="130" as="sourcePoint" />
          </mxGeometry>
        </mxCell>
        <mxCell id="mPMTFJL_Vb9YS9UuzuNP-318" value="" style="group" parent="1" vertex="1" connectable="0">
          <mxGeometry x="1140" y="780" width="160" height="310" as="geometry" />
        </mxCell>
        <mxCell id="mPMTFJL_Vb9YS9UuzuNP-319" value="" style="group" parent="mPMTFJL_Vb9YS9UuzuNP-318" vertex="1" connectable="0">
          <mxGeometry width="160" height="310" as="geometry" />
        </mxCell>
        <mxCell id="mPMTFJL_Vb9YS9UuzuNP-320" value="Generic group" style="fillColor=#EFF0F3;strokeColor=none;dashed=0;verticalAlign=top;fontStyle=0;fontColor=#232F3D;" parent="mPMTFJL_Vb9YS9UuzuNP-319" vertex="1">
          <mxGeometry width="163" height="310" as="geometry" />
        </mxCell>
        <mxCell id="mPMTFJL_Vb9YS9UuzuNP-321" value="" style="strokeColor=#dddddd;shadow=1;strokeWidth=1;rounded=1;absoluteArcSize=1;arcSize=2;" parent="mPMTFJL_Vb9YS9UuzuNP-319" vertex="1">
          <mxGeometry width="160" height="62.00000000000001" as="geometry" />
        </mxCell>
        <mxCell id="mPMTFJL_Vb9YS9UuzuNP-322" value="&lt;font color=&quot;#000000&quot;&gt;&lt;span&gt;Kafka Zookeeper&lt;/span&gt;&lt;/font&gt;&lt;br&gt;Zookeeper&amp;nbsp;" style="sketch=0;dashed=0;connectable=0;html=1;fillColor=#5184F3;strokeColor=none;shape=mxgraph.gcp2.hexIcon;prIcon=container_engine;part=1;labelPosition=right;verticalLabelPosition=middle;align=left;verticalAlign=middle;spacingLeft=5;fontColor=#999999;fontSize=12;" parent="mPMTFJL_Vb9YS9UuzuNP-321" vertex="1">
          <mxGeometry y="0.5" width="44" height="39" relative="1" as="geometry">
            <mxPoint x="5" y="-19.5" as="offset" />
          </mxGeometry>
        </mxCell>
        <mxCell id="mPMTFJL_Vb9YS9UuzuNP-323" value="" style="group" parent="mPMTFJL_Vb9YS9UuzuNP-319" vertex="1" connectable="0">
          <mxGeometry x="50" y="240" width="60" height="60" as="geometry" />
        </mxCell>
        <mxCell id="mPMTFJL_Vb9YS9UuzuNP-324" value="" style="sketch=0;html=1;dashed=0;whitespace=wrap;fillColor=#2875E2;strokeColor=#ffffff;points=[[0.005,0.63,0],[0.1,0.2,0],[0.9,0.2,0],[0.5,0,0],[0.995,0.63,0],[0.72,0.99,0],[0.5,1,0],[0.28,0.99,0]];shape=mxgraph.kubernetes.icon;prIcon=pod" parent="mPMTFJL_Vb9YS9UuzuNP-323" vertex="1">
          <mxGeometry x="5" width="50" height="48" as="geometry" />
        </mxCell>
        <mxCell id="mPMTFJL_Vb9YS9UuzuNP-325" value="Pod 1" style="text;html=1;strokeColor=none;fillColor=none;align=center;verticalAlign=middle;whiteSpace=wrap;rounded=0;" parent="mPMTFJL_Vb9YS9UuzuNP-323" vertex="1">
          <mxGeometry y="48" width="60" height="12" as="geometry" />
        </mxCell>
        <mxCell id="mPMTFJL_Vb9YS9UuzuNP-326" value="" style="group" parent="mPMTFJL_Vb9YS9UuzuNP-318" vertex="1" connectable="0">
          <mxGeometry x="50" y="150" width="60" height="60" as="geometry" />
        </mxCell>
        <mxCell id="mPMTFJL_Vb9YS9UuzuNP-327" value="" style="sketch=0;html=1;dashed=0;whitespace=wrap;fillColor=#2875E2;strokeColor=#ffffff;points=[[0.005,0.63,0],[0.1,0.2,0],[0.9,0.2,0],[0.5,0,0],[0.995,0.63,0],[0.72,0.99,0],[0.5,1,0],[0.28,0.99,0]];shape=mxgraph.kubernetes.icon;prIcon=deploy" parent="mPMTFJL_Vb9YS9UuzuNP-326" vertex="1">
          <mxGeometry x="5" width="50" height="48" as="geometry" />
        </mxCell>
        <mxCell id="mPMTFJL_Vb9YS9UuzuNP-328" value="Deployment" style="text;html=1;strokeColor=none;fillColor=none;align=center;verticalAlign=middle;whiteSpace=wrap;rounded=0;" parent="mPMTFJL_Vb9YS9UuzuNP-326" vertex="1">
          <mxGeometry y="48" width="60" height="12" as="geometry" />
        </mxCell>
        <mxCell id="mPMTFJL_Vb9YS9UuzuNP-329" value="" style="group" parent="mPMTFJL_Vb9YS9UuzuNP-318" vertex="1" connectable="0">
          <mxGeometry x="38" y="70" width="85" height="58" as="geometry" />
        </mxCell>
        <mxCell id="mPMTFJL_Vb9YS9UuzuNP-330" value="" style="sketch=0;html=1;dashed=0;whitespace=wrap;fillColor=#2875E2;strokeColor=#ffffff;points=[[0.005,0.63,0],[0.1,0.2,0],[0.9,0.2,0],[0.5,0,0],[0.995,0.63,0],[0.72,0.99,0],[0.5,1,0],[0.28,0.99,0]];shape=mxgraph.kubernetes.icon;prIcon=svc" parent="mPMTFJL_Vb9YS9UuzuNP-329" vertex="1">
          <mxGeometry x="17.5" width="50" height="48" as="geometry" />
        </mxCell>
        <mxCell id="mPMTFJL_Vb9YS9UuzuNP-331" value="Cluster IP" style="text;html=1;strokeColor=none;fillColor=none;align=center;verticalAlign=middle;whiteSpace=wrap;rounded=0;" parent="mPMTFJL_Vb9YS9UuzuNP-329" vertex="1">
          <mxGeometry y="48" width="85" height="10" as="geometry" />
        </mxCell>
        <mxCell id="mPMTFJL_Vb9YS9UuzuNP-332" style="edgeStyle=orthogonalEdgeStyle;rounded=0;orthogonalLoop=1;jettySize=auto;html=1;entryX=0.5;entryY=0;entryDx=0;entryDy=0;entryPerimeter=0;" parent="mPMTFJL_Vb9YS9UuzuNP-318" target="mPMTFJL_Vb9YS9UuzuNP-324" edge="1">
          <mxGeometry relative="1" as="geometry">
            <mxPoint x="80" y="218" as="sourcePoint" />
            <Array as="points">
              <mxPoint x="80" y="230" />
              <mxPoint x="80" y="230" />
            </Array>
          </mxGeometry>
        </mxCell>
        <mxCell id="mPMTFJL_Vb9YS9UuzuNP-333" style="edgeStyle=orthogonalEdgeStyle;rounded=0;orthogonalLoop=1;jettySize=auto;html=1;" parent="mPMTFJL_Vb9YS9UuzuNP-318" edge="1">
          <mxGeometry relative="1" as="geometry">
            <mxPoint x="80.5" y="150" as="targetPoint" />
            <mxPoint x="81" y="130" as="sourcePoint" />
          </mxGeometry>
        </mxCell>
        <mxCell id="mPMTFJL_Vb9YS9UuzuNP-338" value="" style="group" parent="1" vertex="1" connectable="0">
          <mxGeometry x="-582" y="1410" width="222" height="410" as="geometry" />
        </mxCell>
        <mxCell id="mPMTFJL_Vb9YS9UuzuNP-375" value="" style="group" parent="mPMTFJL_Vb9YS9UuzuNP-338" vertex="1" connectable="0">
          <mxGeometry y="-10" width="222" height="320" as="geometry" />
        </mxCell>
        <mxCell id="mPMTFJL_Vb9YS9UuzuNP-339" value="Generic group" style="fillColor=#EFF0F3;strokeColor=none;dashed=0;verticalAlign=top;fontStyle=0;fontColor=#232F3D;" parent="mPMTFJL_Vb9YS9UuzuNP-375" vertex="1">
          <mxGeometry width="222" height="320" as="geometry" />
        </mxCell>
        <mxCell id="mPMTFJL_Vb9YS9UuzuNP-343" value="" style="group" parent="mPMTFJL_Vb9YS9UuzuNP-375" vertex="1" connectable="0">
          <mxGeometry x="80" y="240" width="60" height="59" as="geometry" />
        </mxCell>
        <mxCell id="mPMTFJL_Vb9YS9UuzuNP-344" value="" style="sketch=0;html=1;dashed=0;whitespace=wrap;fillColor=#2875E2;strokeColor=#ffffff;points=[[0.005,0.63,0],[0.1,0.2,0],[0.9,0.2,0],[0.5,0,0],[0.995,0.63,0],[0.72,0.99,0],[0.5,1,0],[0.28,0.99,0]];shape=mxgraph.kubernetes.icon;prIcon=pod" parent="mPMTFJL_Vb9YS9UuzuNP-343" vertex="1">
          <mxGeometry x="5" width="50" height="48" as="geometry" />
        </mxCell>
        <mxCell id="mPMTFJL_Vb9YS9UuzuNP-345" value="Broker 2" style="text;html=1;strokeColor=none;fillColor=none;align=center;verticalAlign=middle;whiteSpace=wrap;rounded=0;" parent="mPMTFJL_Vb9YS9UuzuNP-343" vertex="1">
          <mxGeometry y="49" width="60" height="10" as="geometry" />
        </mxCell>
        <mxCell id="mPMTFJL_Vb9YS9UuzuNP-346" value="" style="group" parent="mPMTFJL_Vb9YS9UuzuNP-375" vertex="1" connectable="0">
          <mxGeometry x="20" y="240" width="60" height="70" as="geometry" />
        </mxCell>
        <mxCell id="mPMTFJL_Vb9YS9UuzuNP-347" value="" style="sketch=0;html=1;dashed=0;whitespace=wrap;fillColor=#2875E2;strokeColor=#ffffff;points=[[0.005,0.63,0],[0.1,0.2,0],[0.9,0.2,0],[0.5,0,0],[0.995,0.63,0],[0.72,0.99,0],[0.5,1,0],[0.28,0.99,0]];shape=mxgraph.kubernetes.icon;prIcon=pod" parent="mPMTFJL_Vb9YS9UuzuNP-346" vertex="1">
          <mxGeometry x="5" width="50" height="48" as="geometry" />
        </mxCell>
        <mxCell id="mPMTFJL_Vb9YS9UuzuNP-348" value="Broker 1" style="text;html=1;strokeColor=none;fillColor=none;align=center;verticalAlign=middle;whiteSpace=wrap;rounded=0;" parent="mPMTFJL_Vb9YS9UuzuNP-346" vertex="1">
          <mxGeometry y="48" width="60" height="12" as="geometry" />
        </mxCell>
        <mxCell id="mPMTFJL_Vb9YS9UuzuNP-349" style="edgeStyle=orthogonalEdgeStyle;rounded=0;orthogonalLoop=1;jettySize=auto;html=1;startArrow=classic;startFill=1;endArrow=none;endFill=0;" parent="mPMTFJL_Vb9YS9UuzuNP-375" source="mPMTFJL_Vb9YS9UuzuNP-347" edge="1">
          <mxGeometry as="geometry">
            <mxPoint x="115" y="220" as="targetPoint" />
            <Array as="points">
              <mxPoint x="50" y="220" />
            </Array>
          </mxGeometry>
        </mxCell>
        <mxCell id="mPMTFJL_Vb9YS9UuzuNP-350" style="edgeStyle=orthogonalEdgeStyle;rounded=0;orthogonalLoop=1;jettySize=auto;html=1;startArrow=classic;startFill=1;endArrow=none;endFill=0;" parent="mPMTFJL_Vb9YS9UuzuNP-375" source="mPMTFJL_Vb9YS9UuzuNP-344" edge="1">
          <mxGeometry as="geometry">
            <mxPoint x="110" y="210" as="targetPoint" />
            <Array as="points">
              <mxPoint x="110" y="220" />
              <mxPoint x="110" y="220" />
            </Array>
          </mxGeometry>
        </mxCell>
        <mxCell id="mPMTFJL_Vb9YS9UuzuNP-351" style="edgeStyle=orthogonalEdgeStyle;rounded=0;orthogonalLoop=1;jettySize=auto;html=1;startArrow=none;startFill=0;endArrow=classic;endFill=1;" parent="mPMTFJL_Vb9YS9UuzuNP-375" edge="1">
          <mxGeometry as="geometry">
            <mxPoint x="110.30902439024396" y="150" as="targetPoint" />
            <mxPoint x="110" y="130" as="sourcePoint" />
          </mxGeometry>
        </mxCell>
        <mxCell id="mPMTFJL_Vb9YS9UuzuNP-352" value="" style="strokeColor=#dddddd;shadow=1;strokeWidth=1;rounded=1;absoluteArcSize=1;arcSize=2;" parent="mPMTFJL_Vb9YS9UuzuNP-375" vertex="1">
          <mxGeometry width="220" height="62" as="geometry" />
        </mxCell>
        <mxCell id="mPMTFJL_Vb9YS9UuzuNP-353" value="&lt;font color=&quot;#000000&quot;&gt;&lt;span&gt;Rabbit Cluster&lt;/span&gt;&lt;/font&gt;&lt;br&gt;RabbitMQ" style="sketch=0;dashed=0;connectable=0;html=1;fillColor=#5184F3;strokeColor=none;shape=mxgraph.gcp2.hexIcon;prIcon=container_engine;part=1;labelPosition=right;verticalLabelPosition=middle;align=left;verticalAlign=middle;spacingLeft=5;fontColor=#999999;fontSize=12;" parent="mPMTFJL_Vb9YS9UuzuNP-352" vertex="1">
          <mxGeometry y="0.5" width="44" height="39" relative="1" as="geometry">
            <mxPoint x="5" y="-19.5" as="offset" />
          </mxGeometry>
        </mxCell>
        <mxCell id="mPMTFJL_Vb9YS9UuzuNP-354" value="" style="sketch=0;html=1;dashed=0;whitespace=wrap;fillColor=#2875E2;strokeColor=#ffffff;points=[[0.005,0.63,0],[0.1,0.2,0],[0.9,0.2,0],[0.5,0,0],[0.995,0.63,0],[0.72,0.99,0],[0.5,1,0],[0.28,0.99,0]];shape=mxgraph.kubernetes.icon;prIcon=sts" parent="mPMTFJL_Vb9YS9UuzuNP-375" vertex="1">
          <mxGeometry x="85.00414634146341" y="150" width="50.60975609756098" height="48" as="geometry" />
        </mxCell>
        <mxCell id="mPMTFJL_Vb9YS9UuzuNP-355" value="" style="group" parent="mPMTFJL_Vb9YS9UuzuNP-375" vertex="1" connectable="0">
          <mxGeometry x="140" y="240" width="60.73170731707317" height="59" as="geometry" />
        </mxCell>
        <mxCell id="mPMTFJL_Vb9YS9UuzuNP-356" value="" style="sketch=0;html=1;dashed=0;whitespace=wrap;fillColor=#2875E2;strokeColor=#ffffff;points=[[0.005,0.63,0],[0.1,0.2,0],[0.9,0.2,0],[0.5,0,0],[0.995,0.63,0],[0.72,0.99,0],[0.5,1,0],[0.28,0.99,0]];shape=mxgraph.kubernetes.icon;prIcon=pod" parent="mPMTFJL_Vb9YS9UuzuNP-355" vertex="1">
          <mxGeometry x="5.060975609756098" width="50.60975609756098" height="48" as="geometry" />
        </mxCell>
        <mxCell id="mPMTFJL_Vb9YS9UuzuNP-357" value="Broker 3" style="text;html=1;strokeColor=none;fillColor=none;align=center;verticalAlign=middle;whiteSpace=wrap;rounded=0;" parent="mPMTFJL_Vb9YS9UuzuNP-355" vertex="1">
          <mxGeometry y="49" width="60.73170731707317" height="10" as="geometry" />
        </mxCell>
        <mxCell id="mPMTFJL_Vb9YS9UuzuNP-358" value="StatefulSet" style="text;html=1;strokeColor=none;fillColor=none;align=center;verticalAlign=middle;whiteSpace=wrap;rounded=0;" parent="mPMTFJL_Vb9YS9UuzuNP-375" vertex="1">
          <mxGeometry x="79.94317073170737" y="198" width="60.73170731707317" height="12" as="geometry" />
        </mxCell>
        <mxCell id="mPMTFJL_Vb9YS9UuzuNP-359" style="edgeStyle=orthogonalEdgeStyle;rounded=0;orthogonalLoop=1;jettySize=auto;html=1;startArrow=classic;startFill=1;endArrow=none;endFill=0;entryX=0.5;entryY=1;entryDx=0;entryDy=0;" parent="mPMTFJL_Vb9YS9UuzuNP-375" source="mPMTFJL_Vb9YS9UuzuNP-356" target="mPMTFJL_Vb9YS9UuzuNP-358" edge="1">
          <mxGeometry as="geometry">
            <mxPoint x="200" y="210" as="targetPoint" />
            <Array as="points">
              <mxPoint x="170" y="220" />
              <mxPoint x="110" y="220" />
              <mxPoint x="110" y="210" />
            </Array>
          </mxGeometry>
        </mxCell>
        <mxCell id="mPMTFJL_Vb9YS9UuzuNP-360" value="" style="group" parent="mPMTFJL_Vb9YS9UuzuNP-375" vertex="1" connectable="0">
          <mxGeometry x="67.2907317073171" y="70" width="86.03658536585368" height="58" as="geometry" />
        </mxCell>
        <mxCell id="mPMTFJL_Vb9YS9UuzuNP-361" value="" style="sketch=0;html=1;dashed=0;whitespace=wrap;fillColor=#2875E2;strokeColor=#ffffff;points=[[0.005,0.63,0],[0.1,0.2,0],[0.9,0.2,0],[0.5,0,0],[0.995,0.63,0],[0.72,0.99,0],[0.5,1,0],[0.28,0.99,0]];shape=mxgraph.kubernetes.icon;prIcon=svc" parent="mPMTFJL_Vb9YS9UuzuNP-360" vertex="1">
          <mxGeometry x="17.713414634146343" width="50.60975609756098" height="48" as="geometry" />
        </mxCell>
        <mxCell id="mPMTFJL_Vb9YS9UuzuNP-362" value="Load Balancer" style="text;html=1;strokeColor=none;fillColor=none;align=center;verticalAlign=middle;whiteSpace=wrap;rounded=0;" parent="mPMTFJL_Vb9YS9UuzuNP-360" vertex="1">
          <mxGeometry y="48" width="86.03658536585368" height="10" as="geometry" />
        </mxCell>
        <mxCell id="uCESpE6ZqwAOXic212Q4-2" value="" style="group" vertex="1" connectable="0" parent="1">
          <mxGeometry x="-770" y="550" width="163" height="310" as="geometry" />
        </mxCell>
        <mxCell id="uCESpE6ZqwAOXic212Q4-1" value="" style="group" vertex="1" connectable="0" parent="uCESpE6ZqwAOXic212Q4-2">
          <mxGeometry width="163" height="310" as="geometry" />
        </mxCell>
        <mxCell id="mPMTFJL_Vb9YS9UuzuNP-65" value="Generic group" style="fillColor=#EFF0F3;strokeColor=none;dashed=0;verticalAlign=top;fontStyle=0;fontColor=#232F3D;" parent="uCESpE6ZqwAOXic212Q4-1" vertex="1">
          <mxGeometry width="163" height="310" as="geometry" />
        </mxCell>
        <mxCell id="mPMTFJL_Vb9YS9UuzuNP-54" value="" style="strokeColor=#dddddd;shadow=1;strokeWidth=1;rounded=1;absoluteArcSize=1;arcSize=2;" parent="uCESpE6ZqwAOXic212Q4-1" vertex="1">
          <mxGeometry width="160" height="62.00000000000001" as="geometry" />
        </mxCell>
        <mxCell id="mPMTFJL_Vb9YS9UuzuNP-55" value="&lt;font color=&quot;#000000&quot;&gt;&lt;span&gt;API Service&lt;/span&gt;&lt;/font&gt;&lt;br&gt;Golang - REST" style="sketch=0;dashed=0;connectable=0;html=1;fillColor=#5184F3;strokeColor=none;shape=mxgraph.gcp2.hexIcon;prIcon=container_engine;part=1;labelPosition=right;verticalLabelPosition=middle;align=left;verticalAlign=middle;spacingLeft=5;fontColor=#999999;fontSize=12;" parent="mPMTFJL_Vb9YS9UuzuNP-54" vertex="1">
          <mxGeometry y="0.5" width="44" height="39" relative="1" as="geometry">
            <mxPoint x="5" y="-19.5" as="offset" />
          </mxGeometry>
        </mxCell>
        <mxCell id="mPMTFJL_Vb9YS9UuzuNP-20" value="" style="group" parent="uCESpE6ZqwAOXic212Q4-2" vertex="1" connectable="0">
          <mxGeometry x="50" y="150" width="60" height="60" as="geometry" />
        </mxCell>
        <mxCell id="mPMTFJL_Vb9YS9UuzuNP-13" value="" style="sketch=0;html=1;dashed=0;whitespace=wrap;fillColor=#2875E2;strokeColor=#ffffff;points=[[0.005,0.63,0],[0.1,0.2,0],[0.9,0.2,0],[0.5,0,0],[0.995,0.63,0],[0.72,0.99,0],[0.5,1,0],[0.28,0.99,0]];shape=mxgraph.kubernetes.icon;prIcon=deploy" parent="mPMTFJL_Vb9YS9UuzuNP-20" vertex="1">
          <mxGeometry x="5" width="50" height="48" as="geometry" />
        </mxCell>
        <mxCell id="mPMTFJL_Vb9YS9UuzuNP-16" value="Deployment" style="text;html=1;strokeColor=none;fillColor=none;align=center;verticalAlign=middle;whiteSpace=wrap;rounded=0;" parent="mPMTFJL_Vb9YS9UuzuNP-20" vertex="1">
          <mxGeometry y="48" width="60" height="12" as="geometry" />
        </mxCell>
        <mxCell id="mPMTFJL_Vb9YS9UuzuNP-25" value="" style="group" parent="uCESpE6ZqwAOXic212Q4-2" vertex="1" connectable="0">
          <mxGeometry x="80" y="240" width="60" height="59" as="geometry" />
        </mxCell>
        <mxCell id="mPMTFJL_Vb9YS9UuzuNP-15" value="" style="sketch=0;html=1;dashed=0;whitespace=wrap;fillColor=#2875E2;strokeColor=#ffffff;points=[[0.005,0.63,0],[0.1,0.2,0],[0.9,0.2,0],[0.5,0,0],[0.995,0.63,0],[0.72,0.99,0],[0.5,1,0],[0.28,0.99,0]];shape=mxgraph.kubernetes.icon;prIcon=pod" parent="mPMTFJL_Vb9YS9UuzuNP-25" vertex="1">
          <mxGeometry x="5" width="50" height="48" as="geometry" />
        </mxCell>
        <mxCell id="mPMTFJL_Vb9YS9UuzuNP-22" value="Pod 2" style="text;html=1;strokeColor=none;fillColor=none;align=center;verticalAlign=middle;whiteSpace=wrap;rounded=0;" parent="mPMTFJL_Vb9YS9UuzuNP-25" vertex="1">
          <mxGeometry y="49" width="60" height="10" as="geometry" />
        </mxCell>
        <mxCell id="mPMTFJL_Vb9YS9UuzuNP-26" value="" style="group" parent="uCESpE6ZqwAOXic212Q4-2" vertex="1" connectable="0">
          <mxGeometry x="20" y="240" width="60" height="60" as="geometry" />
        </mxCell>
        <mxCell id="mPMTFJL_Vb9YS9UuzuNP-2" value="" style="sketch=0;html=1;dashed=0;whitespace=wrap;fillColor=#2875E2;strokeColor=#ffffff;points=[[0.005,0.63,0],[0.1,0.2,0],[0.9,0.2,0],[0.5,0,0],[0.995,0.63,0],[0.72,0.99,0],[0.5,1,0],[0.28,0.99,0]];shape=mxgraph.kubernetes.icon;prIcon=pod" parent="mPMTFJL_Vb9YS9UuzuNP-26" vertex="1">
          <mxGeometry x="5" width="50" height="48" as="geometry" />
        </mxCell>
        <mxCell id="mPMTFJL_Vb9YS9UuzuNP-21" value="Pod 1" style="text;html=1;strokeColor=none;fillColor=none;align=center;verticalAlign=middle;whiteSpace=wrap;rounded=0;" parent="mPMTFJL_Vb9YS9UuzuNP-26" vertex="1">
          <mxGeometry y="48" width="60" height="12" as="geometry" />
        </mxCell>
        <mxCell id="mPMTFJL_Vb9YS9UuzuNP-27" value="" style="group" parent="uCESpE6ZqwAOXic212Q4-2" vertex="1" connectable="0">
          <mxGeometry x="38" y="70" width="85" height="58" as="geometry" />
        </mxCell>
        <mxCell id="mPMTFJL_Vb9YS9UuzuNP-11" value="" style="sketch=0;html=1;dashed=0;whitespace=wrap;fillColor=#2875E2;strokeColor=#ffffff;points=[[0.005,0.63,0],[0.1,0.2,0],[0.9,0.2,0],[0.5,0,0],[0.995,0.63,0],[0.72,0.99,0],[0.5,1,0],[0.28,0.99,0]];shape=mxgraph.kubernetes.icon;prIcon=svc" parent="mPMTFJL_Vb9YS9UuzuNP-27" vertex="1">
          <mxGeometry x="17.5" width="50" height="48" as="geometry" />
        </mxCell>
        <mxCell id="mPMTFJL_Vb9YS9UuzuNP-24" value="Load Balancer" style="text;html=1;strokeColor=none;fillColor=none;align=center;verticalAlign=middle;whiteSpace=wrap;rounded=0;" parent="mPMTFJL_Vb9YS9UuzuNP-27" vertex="1">
          <mxGeometry y="48" width="85" height="10" as="geometry" />
        </mxCell>
        <mxCell id="mPMTFJL_Vb9YS9UuzuNP-28" style="edgeStyle=orthogonalEdgeStyle;rounded=0;orthogonalLoop=1;jettySize=auto;html=1;entryX=0.5;entryY=0;entryDx=0;entryDy=0;entryPerimeter=0;" parent="uCESpE6ZqwAOXic212Q4-2" target="mPMTFJL_Vb9YS9UuzuNP-15" edge="1">
          <mxGeometry relative="1" as="geometry">
            <mxPoint x="80" y="214" as="sourcePoint" />
            <Array as="points">
              <mxPoint x="80" y="220" />
              <mxPoint x="110" y="220" />
            </Array>
          </mxGeometry>
        </mxCell>
        <mxCell id="mPMTFJL_Vb9YS9UuzuNP-29" style="edgeStyle=orthogonalEdgeStyle;rounded=0;orthogonalLoop=1;jettySize=auto;html=1;entryX=0.5;entryY=0;entryDx=0;entryDy=0;entryPerimeter=0;" parent="uCESpE6ZqwAOXic212Q4-2" target="mPMTFJL_Vb9YS9UuzuNP-2" edge="1">
          <mxGeometry relative="1" as="geometry">
            <mxPoint x="80" y="218" as="sourcePoint" />
            <Array as="points">
              <mxPoint x="80" y="220" />
              <mxPoint x="50" y="220" />
            </Array>
          </mxGeometry>
        </mxCell>
        <mxCell id="mPMTFJL_Vb9YS9UuzuNP-31" style="edgeStyle=orthogonalEdgeStyle;rounded=0;orthogonalLoop=1;jettySize=auto;html=1;" parent="uCESpE6ZqwAOXic212Q4-2" edge="1">
          <mxGeometry relative="1" as="geometry">
            <mxPoint x="80.5" y="150" as="targetPoint" />
            <mxPoint x="81" y="130" as="sourcePoint" />
          </mxGeometry>
        </mxCell>
        <mxCell id="uCESpE6ZqwAOXic212Q4-6" value="" style="group" vertex="1" connectable="0" parent="1">
          <mxGeometry x="-460" y="380" width="422" height="410" as="geometry" />
        </mxCell>
        <mxCell id="mPMTFJL_Vb9YS9UuzuNP-108" value="" style="group" parent="uCESpE6ZqwAOXic212Q4-6" vertex="1" connectable="0">
          <mxGeometry y="30" width="160" height="310" as="geometry" />
        </mxCell>
        <mxCell id="mPMTFJL_Vb9YS9UuzuNP-109" value="" style="group" parent="mPMTFJL_Vb9YS9UuzuNP-108" vertex="1" connectable="0">
          <mxGeometry width="160" height="310" as="geometry" />
        </mxCell>
        <mxCell id="mPMTFJL_Vb9YS9UuzuNP-110" value="Generic group" style="fillColor=#EFF0F3;strokeColor=none;dashed=0;verticalAlign=top;fontStyle=0;fontColor=#232F3D;" parent="mPMTFJL_Vb9YS9UuzuNP-109" vertex="1">
          <mxGeometry width="163" height="310" as="geometry" />
        </mxCell>
        <mxCell id="mPMTFJL_Vb9YS9UuzuNP-111" value="" style="strokeColor=#dddddd;shadow=1;strokeWidth=1;rounded=1;absoluteArcSize=1;arcSize=2;" parent="mPMTFJL_Vb9YS9UuzuNP-109" vertex="1">
          <mxGeometry width="160" height="62.00000000000001" as="geometry" />
        </mxCell>
        <mxCell id="mPMTFJL_Vb9YS9UuzuNP-112" value="&lt;font color=&quot;#000000&quot;&gt;&lt;span&gt;Neo4J service&lt;/span&gt;&lt;/font&gt;&lt;br&gt;?? - gRPC&amp;nbsp;" style="sketch=0;dashed=0;connectable=0;html=1;fillColor=#5184F3;strokeColor=none;shape=mxgraph.gcp2.hexIcon;prIcon=container_engine;part=1;labelPosition=right;verticalLabelPosition=middle;align=left;verticalAlign=middle;spacingLeft=5;fontColor=#999999;fontSize=12;" parent="mPMTFJL_Vb9YS9UuzuNP-111" vertex="1">
          <mxGeometry y="0.5" width="44" height="39" relative="1" as="geometry">
            <mxPoint x="5" y="-19.5" as="offset" />
          </mxGeometry>
        </mxCell>
        <mxCell id="mPMTFJL_Vb9YS9UuzuNP-113" value="" style="group" parent="mPMTFJL_Vb9YS9UuzuNP-108" vertex="1" connectable="0">
          <mxGeometry x="50" y="150" width="60" height="60" as="geometry" />
        </mxCell>
        <mxCell id="mPMTFJL_Vb9YS9UuzuNP-114" value="" style="sketch=0;html=1;dashed=0;whitespace=wrap;fillColor=#2875E2;strokeColor=#ffffff;points=[[0.005,0.63,0],[0.1,0.2,0],[0.9,0.2,0],[0.5,0,0],[0.995,0.63,0],[0.72,0.99,0],[0.5,1,0],[0.28,0.99,0]];shape=mxgraph.kubernetes.icon;prIcon=deploy" parent="mPMTFJL_Vb9YS9UuzuNP-113" vertex="1">
          <mxGeometry x="5" width="50" height="48" as="geometry" />
        </mxCell>
        <mxCell id="mPMTFJL_Vb9YS9UuzuNP-115" value="Deployment" style="text;html=1;strokeColor=none;fillColor=none;align=center;verticalAlign=middle;whiteSpace=wrap;rounded=0;" parent="mPMTFJL_Vb9YS9UuzuNP-113" vertex="1">
          <mxGeometry y="48" width="60" height="12" as="geometry" />
        </mxCell>
        <mxCell id="mPMTFJL_Vb9YS9UuzuNP-116" value="" style="group" parent="mPMTFJL_Vb9YS9UuzuNP-108" vertex="1" connectable="0">
          <mxGeometry x="80" y="240" width="60" height="59" as="geometry" />
        </mxCell>
        <mxCell id="mPMTFJL_Vb9YS9UuzuNP-117" value="" style="sketch=0;html=1;dashed=0;whitespace=wrap;fillColor=#2875E2;strokeColor=#ffffff;points=[[0.005,0.63,0],[0.1,0.2,0],[0.9,0.2,0],[0.5,0,0],[0.995,0.63,0],[0.72,0.99,0],[0.5,1,0],[0.28,0.99,0]];shape=mxgraph.kubernetes.icon;prIcon=pod" parent="mPMTFJL_Vb9YS9UuzuNP-116" vertex="1">
          <mxGeometry x="5" width="50" height="48" as="geometry" />
        </mxCell>
        <mxCell id="mPMTFJL_Vb9YS9UuzuNP-118" value="Pod 2" style="text;html=1;strokeColor=none;fillColor=none;align=center;verticalAlign=middle;whiteSpace=wrap;rounded=0;" parent="mPMTFJL_Vb9YS9UuzuNP-116" vertex="1">
          <mxGeometry y="49" width="60" height="10" as="geometry" />
        </mxCell>
        <mxCell id="mPMTFJL_Vb9YS9UuzuNP-119" value="" style="group" parent="mPMTFJL_Vb9YS9UuzuNP-108" vertex="1" connectable="0">
          <mxGeometry x="20" y="240" width="60" height="60" as="geometry" />
        </mxCell>
        <mxCell id="mPMTFJL_Vb9YS9UuzuNP-120" value="" style="sketch=0;html=1;dashed=0;whitespace=wrap;fillColor=#2875E2;strokeColor=#ffffff;points=[[0.005,0.63,0],[0.1,0.2,0],[0.9,0.2,0],[0.5,0,0],[0.995,0.63,0],[0.72,0.99,0],[0.5,1,0],[0.28,0.99,0]];shape=mxgraph.kubernetes.icon;prIcon=pod" parent="mPMTFJL_Vb9YS9UuzuNP-119" vertex="1">
          <mxGeometry x="5" width="50" height="48" as="geometry" />
        </mxCell>
        <mxCell id="mPMTFJL_Vb9YS9UuzuNP-121" value="Pod 1" style="text;html=1;strokeColor=none;fillColor=none;align=center;verticalAlign=middle;whiteSpace=wrap;rounded=0;" parent="mPMTFJL_Vb9YS9UuzuNP-119" vertex="1">
          <mxGeometry y="48" width="60" height="12" as="geometry" />
        </mxCell>
        <mxCell id="mPMTFJL_Vb9YS9UuzuNP-122" value="" style="group" parent="mPMTFJL_Vb9YS9UuzuNP-108" vertex="1" connectable="0">
          <mxGeometry x="38" y="70" width="85" height="58" as="geometry" />
        </mxCell>
        <mxCell id="mPMTFJL_Vb9YS9UuzuNP-123" value="" style="sketch=0;html=1;dashed=0;whitespace=wrap;fillColor=#2875E2;strokeColor=#ffffff;points=[[0.005,0.63,0],[0.1,0.2,0],[0.9,0.2,0],[0.5,0,0],[0.995,0.63,0],[0.72,0.99,0],[0.5,1,0],[0.28,0.99,0]];shape=mxgraph.kubernetes.icon;prIcon=svc" parent="mPMTFJL_Vb9YS9UuzuNP-122" vertex="1">
          <mxGeometry x="17.5" width="50" height="48" as="geometry" />
        </mxCell>
        <mxCell id="mPMTFJL_Vb9YS9UuzuNP-124" value="Cluster IP" style="text;html=1;strokeColor=none;fillColor=none;align=center;verticalAlign=middle;whiteSpace=wrap;rounded=0;" parent="mPMTFJL_Vb9YS9UuzuNP-122" vertex="1">
          <mxGeometry y="48" width="85" height="10" as="geometry" />
        </mxCell>
        <mxCell id="mPMTFJL_Vb9YS9UuzuNP-125" style="edgeStyle=orthogonalEdgeStyle;rounded=0;orthogonalLoop=1;jettySize=auto;html=1;entryX=0.5;entryY=0;entryDx=0;entryDy=0;entryPerimeter=0;" parent="mPMTFJL_Vb9YS9UuzuNP-108" target="mPMTFJL_Vb9YS9UuzuNP-117" edge="1">
          <mxGeometry relative="1" as="geometry">
            <mxPoint x="80" y="213.9999999999999" as="sourcePoint" />
            <Array as="points">
              <mxPoint x="80" y="220" />
              <mxPoint x="110" y="220" />
            </Array>
          </mxGeometry>
        </mxCell>
        <mxCell id="mPMTFJL_Vb9YS9UuzuNP-126" style="edgeStyle=orthogonalEdgeStyle;rounded=0;orthogonalLoop=1;jettySize=auto;html=1;entryX=0.5;entryY=0;entryDx=0;entryDy=0;entryPerimeter=0;" parent="mPMTFJL_Vb9YS9UuzuNP-108" target="mPMTFJL_Vb9YS9UuzuNP-120" edge="1">
          <mxGeometry relative="1" as="geometry">
            <mxPoint x="80" y="218" as="sourcePoint" />
            <Array as="points">
              <mxPoint x="80" y="220" />
              <mxPoint x="50" y="220" />
            </Array>
          </mxGeometry>
        </mxCell>
        <mxCell id="mPMTFJL_Vb9YS9UuzuNP-127" style="edgeStyle=orthogonalEdgeStyle;rounded=0;orthogonalLoop=1;jettySize=auto;html=1;" parent="mPMTFJL_Vb9YS9UuzuNP-108" edge="1">
          <mxGeometry relative="1" as="geometry">
            <mxPoint x="80.5" y="150" as="targetPoint" />
            <mxPoint x="81" y="130" as="sourcePoint" />
          </mxGeometry>
        </mxCell>
        <mxCell id="mPMTFJL_Vb9YS9UuzuNP-337" value="" style="group" parent="uCESpE6ZqwAOXic212Q4-6" vertex="1" connectable="0">
          <mxGeometry x="200" y="30" width="222" height="410" as="geometry" />
        </mxCell>
        <mxCell id="mPMTFJL_Vb9YS9UuzuNP-205" value="Generic group" style="fillColor=#EFF0F3;strokeColor=none;dashed=0;verticalAlign=top;fontStyle=0;fontColor=#232F3D;" parent="mPMTFJL_Vb9YS9UuzuNP-337" vertex="1">
          <mxGeometry width="222" height="410" as="geometry" />
        </mxCell>
        <mxCell id="mPMTFJL_Vb9YS9UuzuNP-206" style="edgeStyle=orthogonalEdgeStyle;rounded=0;orthogonalLoop=1;jettySize=auto;html=1;startArrow=none;startFill=0;endArrow=classic;endFill=1;dashed=1;dashPattern=1 1;" parent="mPMTFJL_Vb9YS9UuzuNP-337" edge="1">
          <mxGeometry as="geometry">
            <mxPoint x="170.36585365853648" y="330" as="targetPoint" />
            <mxPoint x="170" y="300" as="sourcePoint" />
          </mxGeometry>
        </mxCell>
        <mxCell id="mPMTFJL_Vb9YS9UuzuNP-207" style="edgeStyle=orthogonalEdgeStyle;rounded=0;orthogonalLoop=1;jettySize=auto;html=1;dashed=1;dashPattern=1 1;startArrow=none;startFill=0;endArrow=classic;endFill=1;" parent="mPMTFJL_Vb9YS9UuzuNP-337" edge="1">
          <mxGeometry as="geometry">
            <mxPoint x="110" y="330" as="targetPoint" />
            <mxPoint x="110" y="300" as="sourcePoint" />
          </mxGeometry>
        </mxCell>
        <mxCell id="mPMTFJL_Vb9YS9UuzuNP-208" style="edgeStyle=orthogonalEdgeStyle;rounded=0;orthogonalLoop=1;jettySize=auto;html=1;dashed=1;dashPattern=1 1;startArrow=none;startFill=0;endArrow=classic;endFill=1;" parent="mPMTFJL_Vb9YS9UuzuNP-337" edge="1">
          <mxGeometry as="geometry">
            <mxPoint x="50" y="330" as="targetPoint" />
            <mxPoint x="50" y="300" as="sourcePoint" />
          </mxGeometry>
        </mxCell>
        <mxCell id="mPMTFJL_Vb9YS9UuzuNP-209" value="" style="group" parent="mPMTFJL_Vb9YS9UuzuNP-337" vertex="1" connectable="0">
          <mxGeometry x="80" y="240" width="60" height="59" as="geometry" />
        </mxCell>
        <mxCell id="mPMTFJL_Vb9YS9UuzuNP-210" value="" style="sketch=0;html=1;dashed=0;whitespace=wrap;fillColor=#2875E2;strokeColor=#ffffff;points=[[0.005,0.63,0],[0.1,0.2,0],[0.9,0.2,0],[0.5,0,0],[0.995,0.63,0],[0.72,0.99,0],[0.5,1,0],[0.28,0.99,0]];shape=mxgraph.kubernetes.icon;prIcon=pod" parent="mPMTFJL_Vb9YS9UuzuNP-209" vertex="1">
          <mxGeometry x="5" width="50" height="48" as="geometry" />
        </mxCell>
        <mxCell id="mPMTFJL_Vb9YS9UuzuNP-211" value="R/W S2" style="text;html=1;strokeColor=none;fillColor=none;align=center;verticalAlign=middle;whiteSpace=wrap;rounded=0;" parent="mPMTFJL_Vb9YS9UuzuNP-209" vertex="1">
          <mxGeometry y="49" width="60" height="10" as="geometry" />
        </mxCell>
        <mxCell id="mPMTFJL_Vb9YS9UuzuNP-212" value="" style="group" parent="mPMTFJL_Vb9YS9UuzuNP-337" vertex="1" connectable="0">
          <mxGeometry x="20" y="240" width="60" height="70" as="geometry" />
        </mxCell>
        <mxCell id="mPMTFJL_Vb9YS9UuzuNP-213" value="" style="sketch=0;html=1;dashed=0;whitespace=wrap;fillColor=#2875E2;strokeColor=#ffffff;points=[[0.005,0.63,0],[0.1,0.2,0],[0.9,0.2,0],[0.5,0,0],[0.995,0.63,0],[0.72,0.99,0],[0.5,1,0],[0.28,0.99,0]];shape=mxgraph.kubernetes.icon;prIcon=pod" parent="mPMTFJL_Vb9YS9UuzuNP-212" vertex="1">
          <mxGeometry x="5" width="50" height="48" as="geometry" />
        </mxCell>
        <mxCell id="mPMTFJL_Vb9YS9UuzuNP-214" value="R/W S1" style="text;html=1;strokeColor=none;fillColor=none;align=center;verticalAlign=middle;whiteSpace=wrap;rounded=0;" parent="mPMTFJL_Vb9YS9UuzuNP-212" vertex="1">
          <mxGeometry y="48" width="60" height="12" as="geometry" />
        </mxCell>
        <mxCell id="mPMTFJL_Vb9YS9UuzuNP-215" style="edgeStyle=orthogonalEdgeStyle;rounded=0;orthogonalLoop=1;jettySize=auto;html=1;startArrow=classic;startFill=1;endArrow=none;endFill=0;" parent="mPMTFJL_Vb9YS9UuzuNP-337" source="mPMTFJL_Vb9YS9UuzuNP-213" edge="1">
          <mxGeometry as="geometry">
            <mxPoint x="115" y="220" as="targetPoint" />
            <Array as="points">
              <mxPoint x="50" y="220" />
            </Array>
          </mxGeometry>
        </mxCell>
        <mxCell id="mPMTFJL_Vb9YS9UuzuNP-216" style="edgeStyle=orthogonalEdgeStyle;rounded=0;orthogonalLoop=1;jettySize=auto;html=1;startArrow=classic;startFill=1;endArrow=none;endFill=0;" parent="mPMTFJL_Vb9YS9UuzuNP-337" source="mPMTFJL_Vb9YS9UuzuNP-210" edge="1">
          <mxGeometry as="geometry">
            <mxPoint x="110" y="210" as="targetPoint" />
            <Array as="points">
              <mxPoint x="110" y="220" />
              <mxPoint x="110" y="220" />
            </Array>
          </mxGeometry>
        </mxCell>
        <mxCell id="mPMTFJL_Vb9YS9UuzuNP-217" style="edgeStyle=orthogonalEdgeStyle;rounded=0;orthogonalLoop=1;jettySize=auto;html=1;startArrow=none;startFill=0;endArrow=classic;endFill=1;" parent="mPMTFJL_Vb9YS9UuzuNP-337" edge="1">
          <mxGeometry as="geometry">
            <mxPoint x="110.30902439024396" y="150" as="targetPoint" />
            <mxPoint x="110" y="130" as="sourcePoint" />
          </mxGeometry>
        </mxCell>
        <mxCell id="mPMTFJL_Vb9YS9UuzuNP-218" value="" style="strokeColor=#dddddd;shadow=1;strokeWidth=1;rounded=1;absoluteArcSize=1;arcSize=2;" parent="mPMTFJL_Vb9YS9UuzuNP-337" vertex="1">
          <mxGeometry width="220" height="62" as="geometry" />
        </mxCell>
        <mxCell id="mPMTFJL_Vb9YS9UuzuNP-219" value="&lt;font color=&quot;#000000&quot;&gt;&lt;span&gt;Neo4J Cluster&lt;/span&gt;&lt;/font&gt;&lt;br&gt;Neo4J" style="sketch=0;dashed=0;connectable=0;html=1;fillColor=#5184F3;strokeColor=none;shape=mxgraph.gcp2.hexIcon;prIcon=container_engine;part=1;labelPosition=right;verticalLabelPosition=middle;align=left;verticalAlign=middle;spacingLeft=5;fontColor=#999999;fontSize=12;" parent="mPMTFJL_Vb9YS9UuzuNP-218" vertex="1">
          <mxGeometry y="0.5" width="44" height="39" relative="1" as="geometry">
            <mxPoint x="5" y="-19.5" as="offset" />
          </mxGeometry>
        </mxCell>
        <mxCell id="mPMTFJL_Vb9YS9UuzuNP-220" value="" style="sketch=0;html=1;dashed=0;whitespace=wrap;fillColor=#2875E2;strokeColor=#ffffff;points=[[0.005,0.63,0],[0.1,0.2,0],[0.9,0.2,0],[0.5,0,0],[0.995,0.63,0],[0.72,0.99,0],[0.5,1,0],[0.28,0.99,0]];shape=mxgraph.kubernetes.icon;prIcon=sts" parent="mPMTFJL_Vb9YS9UuzuNP-337" vertex="1">
          <mxGeometry x="85.00414634146341" y="150" width="50.60975609756098" height="48" as="geometry" />
        </mxCell>
        <mxCell id="mPMTFJL_Vb9YS9UuzuNP-221" value="" style="group" parent="mPMTFJL_Vb9YS9UuzuNP-337" vertex="1" connectable="0">
          <mxGeometry x="140" y="240" width="60.73170731707317" height="59" as="geometry" />
        </mxCell>
        <mxCell id="mPMTFJL_Vb9YS9UuzuNP-222" value="" style="sketch=0;html=1;dashed=0;whitespace=wrap;fillColor=#2875E2;strokeColor=#ffffff;points=[[0.005,0.63,0],[0.1,0.2,0],[0.9,0.2,0],[0.5,0,0],[0.995,0.63,0],[0.72,0.99,0],[0.5,1,0],[0.28,0.99,0]];shape=mxgraph.kubernetes.icon;prIcon=pod" parent="mPMTFJL_Vb9YS9UuzuNP-221" vertex="1">
          <mxGeometry x="5.060975609756098" width="50.60975609756098" height="48" as="geometry" />
        </mxCell>
        <mxCell id="mPMTFJL_Vb9YS9UuzuNP-223" value="R/W S3" style="text;html=1;strokeColor=none;fillColor=none;align=center;verticalAlign=middle;whiteSpace=wrap;rounded=0;" parent="mPMTFJL_Vb9YS9UuzuNP-221" vertex="1">
          <mxGeometry y="49" width="60.73170731707317" height="10" as="geometry" />
        </mxCell>
        <mxCell id="mPMTFJL_Vb9YS9UuzuNP-224" value="StatefulSet" style="text;html=1;strokeColor=none;fillColor=none;align=center;verticalAlign=middle;whiteSpace=wrap;rounded=0;" parent="mPMTFJL_Vb9YS9UuzuNP-337" vertex="1">
          <mxGeometry x="79.94317073170737" y="198" width="60.73170731707317" height="12" as="geometry" />
        </mxCell>
        <mxCell id="mPMTFJL_Vb9YS9UuzuNP-225" style="edgeStyle=orthogonalEdgeStyle;rounded=0;orthogonalLoop=1;jettySize=auto;html=1;startArrow=classic;startFill=1;endArrow=none;endFill=0;entryX=0.5;entryY=1;entryDx=0;entryDy=0;" parent="mPMTFJL_Vb9YS9UuzuNP-337" source="mPMTFJL_Vb9YS9UuzuNP-222" target="mPMTFJL_Vb9YS9UuzuNP-224" edge="1">
          <mxGeometry as="geometry">
            <mxPoint x="200" y="210" as="targetPoint" />
            <Array as="points">
              <mxPoint x="170" y="220" />
              <mxPoint x="110" y="220" />
              <mxPoint x="110" y="210" />
            </Array>
          </mxGeometry>
        </mxCell>
        <mxCell id="mPMTFJL_Vb9YS9UuzuNP-226" value="" style="group" parent="mPMTFJL_Vb9YS9UuzuNP-337" vertex="1" connectable="0">
          <mxGeometry x="67.2907317073171" y="70" width="86.03658536585368" height="58" as="geometry" />
        </mxCell>
        <mxCell id="mPMTFJL_Vb9YS9UuzuNP-227" value="" style="sketch=0;html=1;dashed=0;whitespace=wrap;fillColor=#2875E2;strokeColor=#ffffff;points=[[0.005,0.63,0],[0.1,0.2,0],[0.9,0.2,0],[0.5,0,0],[0.995,0.63,0],[0.72,0.99,0],[0.5,1,0],[0.28,0.99,0]];shape=mxgraph.kubernetes.icon;prIcon=svc" parent="mPMTFJL_Vb9YS9UuzuNP-226" vertex="1">
          <mxGeometry x="17.713414634146343" width="50.60975609756098" height="48" as="geometry" />
        </mxCell>
        <mxCell id="mPMTFJL_Vb9YS9UuzuNP-228" value="Cluster IP" style="text;html=1;strokeColor=none;fillColor=none;align=center;verticalAlign=middle;whiteSpace=wrap;rounded=0;" parent="mPMTFJL_Vb9YS9UuzuNP-226" vertex="1">
          <mxGeometry y="48" width="86.03658536585368" height="10" as="geometry" />
        </mxCell>
        <mxCell id="mPMTFJL_Vb9YS9UuzuNP-229" value="" style="group" parent="mPMTFJL_Vb9YS9UuzuNP-337" vertex="1" connectable="0">
          <mxGeometry x="20" y="330" width="60.73170731707317" height="59" as="geometry" />
        </mxCell>
        <mxCell id="mPMTFJL_Vb9YS9UuzuNP-230" value="" style="sketch=0;html=1;dashed=0;whitespace=wrap;fillColor=#2875E2;strokeColor=#ffffff;points=[[0.005,0.63,0],[0.1,0.2,0],[0.9,0.2,0],[0.5,0,0],[0.995,0.63,0],[0.72,0.99,0],[0.5,1,0],[0.28,0.99,0]];shape=mxgraph.kubernetes.icon;prIcon=pod" parent="mPMTFJL_Vb9YS9UuzuNP-229" vertex="1">
          <mxGeometry x="5.060975609756098" width="50.60975609756098" height="48" as="geometry" />
        </mxCell>
        <mxCell id="mPMTFJL_Vb9YS9UuzuNP-231" value="R R1" style="text;html=1;strokeColor=none;fillColor=none;align=center;verticalAlign=middle;whiteSpace=wrap;rounded=0;" parent="mPMTFJL_Vb9YS9UuzuNP-229" vertex="1">
          <mxGeometry y="49" width="60.73170731707317" height="10" as="geometry" />
        </mxCell>
        <mxCell id="mPMTFJL_Vb9YS9UuzuNP-232" value="" style="group" parent="mPMTFJL_Vb9YS9UuzuNP-337" vertex="1" connectable="0">
          <mxGeometry x="80" y="330" width="60.73170731707317" height="59" as="geometry" />
        </mxCell>
        <mxCell id="mPMTFJL_Vb9YS9UuzuNP-233" value="" style="sketch=0;html=1;dashed=0;whitespace=wrap;fillColor=#2875E2;strokeColor=#ffffff;points=[[0.005,0.63,0],[0.1,0.2,0],[0.9,0.2,0],[0.5,0,0],[0.995,0.63,0],[0.72,0.99,0],[0.5,1,0],[0.28,0.99,0]];shape=mxgraph.kubernetes.icon;prIcon=pod" parent="mPMTFJL_Vb9YS9UuzuNP-232" vertex="1">
          <mxGeometry x="5.060975609756098" width="50.60975609756098" height="48" as="geometry" />
        </mxCell>
        <mxCell id="mPMTFJL_Vb9YS9UuzuNP-234" value="R R2" style="text;html=1;strokeColor=none;fillColor=none;align=center;verticalAlign=middle;whiteSpace=wrap;rounded=0;" parent="mPMTFJL_Vb9YS9UuzuNP-232" vertex="1">
          <mxGeometry y="49" width="60.73170731707317" height="10" as="geometry" />
        </mxCell>
        <mxCell id="mPMTFJL_Vb9YS9UuzuNP-235" value="" style="group" parent="mPMTFJL_Vb9YS9UuzuNP-337" vertex="1" connectable="0">
          <mxGeometry x="140" y="330" width="60.73170731707317" height="59" as="geometry" />
        </mxCell>
        <mxCell id="mPMTFJL_Vb9YS9UuzuNP-236" value="" style="sketch=0;html=1;dashed=0;whitespace=wrap;fillColor=#2875E2;strokeColor=#ffffff;points=[[0.005,0.63,0],[0.1,0.2,0],[0.9,0.2,0],[0.5,0,0],[0.995,0.63,0],[0.72,0.99,0],[0.5,1,0],[0.28,0.99,0]];shape=mxgraph.kubernetes.icon;prIcon=pod" parent="mPMTFJL_Vb9YS9UuzuNP-235" vertex="1">
          <mxGeometry x="5.060975609756098" width="50.60975609756098" height="48" as="geometry" />
        </mxCell>
        <mxCell id="mPMTFJL_Vb9YS9UuzuNP-237" value="R R3" style="text;html=1;strokeColor=none;fillColor=none;align=center;verticalAlign=middle;whiteSpace=wrap;rounded=0;" parent="mPMTFJL_Vb9YS9UuzuNP-235" vertex="1">
          <mxGeometry y="49" width="60.73170731707317" height="10" as="geometry" />
        </mxCell>
        <mxCell id="uCESpE6ZqwAOXic212Q4-5" style="edgeStyle=orthogonalEdgeStyle;rounded=0;orthogonalLoop=1;jettySize=auto;html=1;entryX=0;entryY=0.5;entryDx=0;entryDy=0;" edge="1" parent="uCESpE6ZqwAOXic212Q4-6" source="mPMTFJL_Vb9YS9UuzuNP-110" target="mPMTFJL_Vb9YS9UuzuNP-205">
          <mxGeometry relative="1" as="geometry" />
        </mxCell>
        <mxCell id="uCESpE6ZqwAOXic212Q4-8" value="" style="group" vertex="1" connectable="0" parent="1">
          <mxGeometry x="-70" y="930" width="365" height="310" as="geometry" />
        </mxCell>
        <mxCell id="mPMTFJL_Vb9YS9UuzuNP-86" value="" style="group" parent="uCESpE6ZqwAOXic212Q4-8" vertex="1" connectable="0">
          <mxGeometry width="160" height="310" as="geometry" />
        </mxCell>
        <mxCell id="mPMTFJL_Vb9YS9UuzuNP-67" value="" style="group" parent="mPMTFJL_Vb9YS9UuzuNP-86" vertex="1" connectable="0">
          <mxGeometry width="160" height="310" as="geometry" />
        </mxCell>
        <mxCell id="mPMTFJL_Vb9YS9UuzuNP-68" value="Generic group" style="fillColor=#EFF0F3;strokeColor=none;dashed=0;verticalAlign=top;fontStyle=0;fontColor=#232F3D;" parent="mPMTFJL_Vb9YS9UuzuNP-67" vertex="1">
          <mxGeometry width="163" height="310" as="geometry" />
        </mxCell>
        <mxCell id="mPMTFJL_Vb9YS9UuzuNP-69" value="" style="strokeColor=#dddddd;shadow=1;strokeWidth=1;rounded=1;absoluteArcSize=1;arcSize=2;" parent="mPMTFJL_Vb9YS9UuzuNP-67" vertex="1">
          <mxGeometry width="160" height="62.00000000000001" as="geometry" />
        </mxCell>
        <mxCell id="mPMTFJL_Vb9YS9UuzuNP-70" value="&lt;font color=&quot;#000000&quot;&gt;&lt;span&gt;Postgres Service&lt;/span&gt;&lt;/font&gt;&lt;br&gt;Golang - gRPC&amp;nbsp;" style="sketch=0;dashed=0;connectable=0;html=1;fillColor=#5184F3;strokeColor=none;shape=mxgraph.gcp2.hexIcon;prIcon=container_engine;part=1;labelPosition=right;verticalLabelPosition=middle;align=left;verticalAlign=middle;spacingLeft=5;fontColor=#999999;fontSize=12;" parent="mPMTFJL_Vb9YS9UuzuNP-69" vertex="1">
          <mxGeometry y="0.5" width="44" height="39" relative="1" as="geometry">
            <mxPoint x="5" y="-19.5" as="offset" />
          </mxGeometry>
        </mxCell>
        <mxCell id="mPMTFJL_Vb9YS9UuzuNP-71" value="" style="group" parent="mPMTFJL_Vb9YS9UuzuNP-86" vertex="1" connectable="0">
          <mxGeometry x="50" y="150" width="60" height="60" as="geometry" />
        </mxCell>
        <mxCell id="mPMTFJL_Vb9YS9UuzuNP-72" value="" style="sketch=0;html=1;dashed=0;whitespace=wrap;fillColor=#2875E2;strokeColor=#ffffff;points=[[0.005,0.63,0],[0.1,0.2,0],[0.9,0.2,0],[0.5,0,0],[0.995,0.63,0],[0.72,0.99,0],[0.5,1,0],[0.28,0.99,0]];shape=mxgraph.kubernetes.icon;prIcon=deploy" parent="mPMTFJL_Vb9YS9UuzuNP-71" vertex="1">
          <mxGeometry x="5" width="50" height="48" as="geometry" />
        </mxCell>
        <mxCell id="mPMTFJL_Vb9YS9UuzuNP-73" value="Deployment" style="text;html=1;strokeColor=none;fillColor=none;align=center;verticalAlign=middle;whiteSpace=wrap;rounded=0;" parent="mPMTFJL_Vb9YS9UuzuNP-71" vertex="1">
          <mxGeometry y="48" width="60" height="12" as="geometry" />
        </mxCell>
        <mxCell id="mPMTFJL_Vb9YS9UuzuNP-74" value="" style="group" parent="mPMTFJL_Vb9YS9UuzuNP-86" vertex="1" connectable="0">
          <mxGeometry x="80" y="240" width="60" height="59" as="geometry" />
        </mxCell>
        <mxCell id="mPMTFJL_Vb9YS9UuzuNP-75" value="" style="sketch=0;html=1;dashed=0;whitespace=wrap;fillColor=#2875E2;strokeColor=#ffffff;points=[[0.005,0.63,0],[0.1,0.2,0],[0.9,0.2,0],[0.5,0,0],[0.995,0.63,0],[0.72,0.99,0],[0.5,1,0],[0.28,0.99,0]];shape=mxgraph.kubernetes.icon;prIcon=pod" parent="mPMTFJL_Vb9YS9UuzuNP-74" vertex="1">
          <mxGeometry x="5" width="50" height="48" as="geometry" />
        </mxCell>
        <mxCell id="mPMTFJL_Vb9YS9UuzuNP-76" value="Pod 2" style="text;html=1;strokeColor=none;fillColor=none;align=center;verticalAlign=middle;whiteSpace=wrap;rounded=0;" parent="mPMTFJL_Vb9YS9UuzuNP-74" vertex="1">
          <mxGeometry y="49" width="60" height="10" as="geometry" />
        </mxCell>
        <mxCell id="mPMTFJL_Vb9YS9UuzuNP-77" value="" style="group" parent="mPMTFJL_Vb9YS9UuzuNP-86" vertex="1" connectable="0">
          <mxGeometry x="20" y="240" width="60" height="60" as="geometry" />
        </mxCell>
        <mxCell id="mPMTFJL_Vb9YS9UuzuNP-78" value="" style="sketch=0;html=1;dashed=0;whitespace=wrap;fillColor=#2875E2;strokeColor=#ffffff;points=[[0.005,0.63,0],[0.1,0.2,0],[0.9,0.2,0],[0.5,0,0],[0.995,0.63,0],[0.72,0.99,0],[0.5,1,0],[0.28,0.99,0]];shape=mxgraph.kubernetes.icon;prIcon=pod" parent="mPMTFJL_Vb9YS9UuzuNP-77" vertex="1">
          <mxGeometry x="5" width="50" height="48" as="geometry" />
        </mxCell>
        <mxCell id="mPMTFJL_Vb9YS9UuzuNP-79" value="Pod 1" style="text;html=1;strokeColor=none;fillColor=none;align=center;verticalAlign=middle;whiteSpace=wrap;rounded=0;" parent="mPMTFJL_Vb9YS9UuzuNP-77" vertex="1">
          <mxGeometry y="48" width="60" height="12" as="geometry" />
        </mxCell>
        <mxCell id="mPMTFJL_Vb9YS9UuzuNP-80" value="" style="group" parent="mPMTFJL_Vb9YS9UuzuNP-86" vertex="1" connectable="0">
          <mxGeometry x="38" y="70" width="85" height="58" as="geometry" />
        </mxCell>
        <mxCell id="mPMTFJL_Vb9YS9UuzuNP-81" value="" style="sketch=0;html=1;dashed=0;whitespace=wrap;fillColor=#2875E2;strokeColor=#ffffff;points=[[0.005,0.63,0],[0.1,0.2,0],[0.9,0.2,0],[0.5,0,0],[0.995,0.63,0],[0.72,0.99,0],[0.5,1,0],[0.28,0.99,0]];shape=mxgraph.kubernetes.icon;prIcon=svc" parent="mPMTFJL_Vb9YS9UuzuNP-80" vertex="1">
          <mxGeometry x="17.5" width="50" height="48" as="geometry" />
        </mxCell>
        <mxCell id="mPMTFJL_Vb9YS9UuzuNP-82" value="Cluster IP" style="text;html=1;strokeColor=none;fillColor=none;align=center;verticalAlign=middle;whiteSpace=wrap;rounded=0;" parent="mPMTFJL_Vb9YS9UuzuNP-80" vertex="1">
          <mxGeometry y="48" width="85" height="10" as="geometry" />
        </mxCell>
        <mxCell id="mPMTFJL_Vb9YS9UuzuNP-83" style="edgeStyle=orthogonalEdgeStyle;rounded=0;orthogonalLoop=1;jettySize=auto;html=1;entryX=0.5;entryY=0;entryDx=0;entryDy=0;entryPerimeter=0;" parent="mPMTFJL_Vb9YS9UuzuNP-86" target="mPMTFJL_Vb9YS9UuzuNP-75" edge="1">
          <mxGeometry relative="1" as="geometry">
            <mxPoint x="80" y="213.9999999999999" as="sourcePoint" />
            <Array as="points">
              <mxPoint x="80" y="220" />
              <mxPoint x="110" y="220" />
            </Array>
          </mxGeometry>
        </mxCell>
        <mxCell id="mPMTFJL_Vb9YS9UuzuNP-84" style="edgeStyle=orthogonalEdgeStyle;rounded=0;orthogonalLoop=1;jettySize=auto;html=1;entryX=0.5;entryY=0;entryDx=0;entryDy=0;entryPerimeter=0;" parent="mPMTFJL_Vb9YS9UuzuNP-86" target="mPMTFJL_Vb9YS9UuzuNP-78" edge="1">
          <mxGeometry relative="1" as="geometry">
            <mxPoint x="80" y="218" as="sourcePoint" />
            <Array as="points">
              <mxPoint x="80" y="220" />
              <mxPoint x="50" y="220" />
            </Array>
          </mxGeometry>
        </mxCell>
        <mxCell id="mPMTFJL_Vb9YS9UuzuNP-85" style="edgeStyle=orthogonalEdgeStyle;rounded=0;orthogonalLoop=1;jettySize=auto;html=1;" parent="mPMTFJL_Vb9YS9UuzuNP-86" edge="1">
          <mxGeometry relative="1" as="geometry">
            <mxPoint x="80.5" y="150" as="targetPoint" />
            <mxPoint x="81" y="130" as="sourcePoint" />
          </mxGeometry>
        </mxCell>
        <mxCell id="mPMTFJL_Vb9YS9UuzuNP-279" value="" style="group" parent="uCESpE6ZqwAOXic212Q4-8" vertex="1" connectable="0">
          <mxGeometry x="205" width="160" height="310" as="geometry" />
        </mxCell>
        <mxCell id="mPMTFJL_Vb9YS9UuzuNP-280" value="" style="group" parent="mPMTFJL_Vb9YS9UuzuNP-279" vertex="1" connectable="0">
          <mxGeometry width="160" height="310" as="geometry" />
        </mxCell>
        <mxCell id="mPMTFJL_Vb9YS9UuzuNP-281" value="Generic group" style="fillColor=#EFF0F3;strokeColor=none;dashed=0;verticalAlign=top;fontStyle=0;fontColor=#232F3D;" parent="mPMTFJL_Vb9YS9UuzuNP-280" vertex="1">
          <mxGeometry width="163" height="310" as="geometry" />
        </mxCell>
        <mxCell id="mPMTFJL_Vb9YS9UuzuNP-282" value="" style="strokeColor=#dddddd;shadow=1;strokeWidth=1;rounded=1;absoluteArcSize=1;arcSize=2;" parent="mPMTFJL_Vb9YS9UuzuNP-280" vertex="1">
          <mxGeometry width="160" height="62.00000000000001" as="geometry" />
        </mxCell>
        <mxCell id="mPMTFJL_Vb9YS9UuzuNP-283" value="&lt;font color=&quot;#000000&quot;&gt;&lt;span&gt;Postgres DB&lt;/span&gt;&lt;/font&gt;&lt;br&gt;PostgreSQL&amp;nbsp;" style="sketch=0;dashed=0;connectable=0;html=1;fillColor=#5184F3;strokeColor=none;shape=mxgraph.gcp2.hexIcon;prIcon=container_engine;part=1;labelPosition=right;verticalLabelPosition=middle;align=left;verticalAlign=middle;spacingLeft=5;fontColor=#999999;fontSize=12;" parent="mPMTFJL_Vb9YS9UuzuNP-282" vertex="1">
          <mxGeometry y="0.5" width="44" height="39" relative="1" as="geometry">
            <mxPoint x="5" y="-19.5" as="offset" />
          </mxGeometry>
        </mxCell>
        <mxCell id="mPMTFJL_Vb9YS9UuzuNP-290" value="" style="group" parent="mPMTFJL_Vb9YS9UuzuNP-280" vertex="1" connectable="0">
          <mxGeometry x="50" y="240" width="60" height="60" as="geometry" />
        </mxCell>
        <mxCell id="mPMTFJL_Vb9YS9UuzuNP-291" value="" style="sketch=0;html=1;dashed=0;whitespace=wrap;fillColor=#2875E2;strokeColor=#ffffff;points=[[0.005,0.63,0],[0.1,0.2,0],[0.9,0.2,0],[0.5,0,0],[0.995,0.63,0],[0.72,0.99,0],[0.5,1,0],[0.28,0.99,0]];shape=mxgraph.kubernetes.icon;prIcon=pod" parent="mPMTFJL_Vb9YS9UuzuNP-290" vertex="1">
          <mxGeometry x="5" width="50" height="48" as="geometry" />
        </mxCell>
        <mxCell id="mPMTFJL_Vb9YS9UuzuNP-292" value="Pod 1" style="text;html=1;strokeColor=none;fillColor=none;align=center;verticalAlign=middle;whiteSpace=wrap;rounded=0;" parent="mPMTFJL_Vb9YS9UuzuNP-290" vertex="1">
          <mxGeometry y="48" width="60" height="12" as="geometry" />
        </mxCell>
        <mxCell id="mPMTFJL_Vb9YS9UuzuNP-284" value="" style="group" parent="mPMTFJL_Vb9YS9UuzuNP-279" vertex="1" connectable="0">
          <mxGeometry x="50" y="150" width="60" height="60" as="geometry" />
        </mxCell>
        <mxCell id="mPMTFJL_Vb9YS9UuzuNP-285" value="" style="sketch=0;html=1;dashed=0;whitespace=wrap;fillColor=#2875E2;strokeColor=#ffffff;points=[[0.005,0.63,0],[0.1,0.2,0],[0.9,0.2,0],[0.5,0,0],[0.995,0.63,0],[0.72,0.99,0],[0.5,1,0],[0.28,0.99,0]];shape=mxgraph.kubernetes.icon;prIcon=deploy" parent="mPMTFJL_Vb9YS9UuzuNP-284" vertex="1">
          <mxGeometry x="5" width="50" height="48" as="geometry" />
        </mxCell>
        <mxCell id="mPMTFJL_Vb9YS9UuzuNP-286" value="Deployment" style="text;html=1;strokeColor=none;fillColor=none;align=center;verticalAlign=middle;whiteSpace=wrap;rounded=0;" parent="mPMTFJL_Vb9YS9UuzuNP-284" vertex="1">
          <mxGeometry y="48" width="60" height="12" as="geometry" />
        </mxCell>
        <mxCell id="mPMTFJL_Vb9YS9UuzuNP-293" value="" style="group" parent="mPMTFJL_Vb9YS9UuzuNP-279" vertex="1" connectable="0">
          <mxGeometry x="38" y="70" width="85" height="58" as="geometry" />
        </mxCell>
        <mxCell id="mPMTFJL_Vb9YS9UuzuNP-294" value="" style="sketch=0;html=1;dashed=0;whitespace=wrap;fillColor=#2875E2;strokeColor=#ffffff;points=[[0.005,0.63,0],[0.1,0.2,0],[0.9,0.2,0],[0.5,0,0],[0.995,0.63,0],[0.72,0.99,0],[0.5,1,0],[0.28,0.99,0]];shape=mxgraph.kubernetes.icon;prIcon=svc" parent="mPMTFJL_Vb9YS9UuzuNP-293" vertex="1">
          <mxGeometry x="17.5" width="50" height="48" as="geometry" />
        </mxCell>
        <mxCell id="mPMTFJL_Vb9YS9UuzuNP-295" value="Cluster IP" style="text;html=1;strokeColor=none;fillColor=none;align=center;verticalAlign=middle;whiteSpace=wrap;rounded=0;" parent="mPMTFJL_Vb9YS9UuzuNP-293" vertex="1">
          <mxGeometry y="48" width="85" height="10" as="geometry" />
        </mxCell>
        <mxCell id="mPMTFJL_Vb9YS9UuzuNP-297" style="edgeStyle=orthogonalEdgeStyle;rounded=0;orthogonalLoop=1;jettySize=auto;html=1;entryX=0.5;entryY=0;entryDx=0;entryDy=0;entryPerimeter=0;" parent="mPMTFJL_Vb9YS9UuzuNP-279" target="mPMTFJL_Vb9YS9UuzuNP-291" edge="1">
          <mxGeometry relative="1" as="geometry">
            <mxPoint x="80" y="218" as="sourcePoint" />
            <Array as="points">
              <mxPoint x="80" y="230" />
              <mxPoint x="80" y="230" />
            </Array>
          </mxGeometry>
        </mxCell>
        <mxCell id="mPMTFJL_Vb9YS9UuzuNP-298" style="edgeStyle=orthogonalEdgeStyle;rounded=0;orthogonalLoop=1;jettySize=auto;html=1;" parent="mPMTFJL_Vb9YS9UuzuNP-279" edge="1">
          <mxGeometry relative="1" as="geometry">
            <mxPoint x="80.5" y="150" as="targetPoint" />
            <mxPoint x="81" y="130" as="sourcePoint" />
          </mxGeometry>
        </mxCell>
        <mxCell id="uCESpE6ZqwAOXic212Q4-7" style="edgeStyle=orthogonalEdgeStyle;rounded=0;orthogonalLoop=1;jettySize=auto;html=1;" edge="1" parent="uCESpE6ZqwAOXic212Q4-8" source="mPMTFJL_Vb9YS9UuzuNP-68">
          <mxGeometry relative="1" as="geometry">
            <mxPoint x="205" y="155" as="targetPoint" />
          </mxGeometry>
        </mxCell>
        <mxCell id="uCESpE6ZqwAOXic212Q4-10" value="" style="group" vertex="1" connectable="0" parent="1">
          <mxGeometry x="280" y="450" width="422" height="410" as="geometry" />
        </mxCell>
        <mxCell id="mPMTFJL_Vb9YS9UuzuNP-87" value="" style="group" parent="uCESpE6ZqwAOXic212Q4-10" vertex="1" connectable="0">
          <mxGeometry y="50" width="160" height="310" as="geometry" />
        </mxCell>
        <mxCell id="mPMTFJL_Vb9YS9UuzuNP-88" value="" style="group" parent="mPMTFJL_Vb9YS9UuzuNP-87" vertex="1" connectable="0">
          <mxGeometry width="160" height="310" as="geometry" />
        </mxCell>
        <mxCell id="mPMTFJL_Vb9YS9UuzuNP-89" value="Generic group" style="fillColor=#EFF0F3;strokeColor=none;dashed=0;verticalAlign=top;fontStyle=0;fontColor=#232F3D;" parent="mPMTFJL_Vb9YS9UuzuNP-88" vertex="1">
          <mxGeometry width="163" height="310" as="geometry" />
        </mxCell>
        <mxCell id="mPMTFJL_Vb9YS9UuzuNP-90" value="" style="strokeColor=#dddddd;shadow=1;strokeWidth=1;rounded=1;absoluteArcSize=1;arcSize=2;" parent="mPMTFJL_Vb9YS9UuzuNP-88" vertex="1">
          <mxGeometry width="160" height="62.00000000000001" as="geometry" />
        </mxCell>
        <mxCell id="mPMTFJL_Vb9YS9UuzuNP-91" value="&lt;font color=&quot;#000000&quot;&gt;&lt;span&gt;Redis service&lt;/span&gt;&lt;/font&gt;&lt;br&gt;Golang - gRPC&amp;nbsp;" style="sketch=0;dashed=0;connectable=0;html=1;fillColor=#5184F3;strokeColor=none;shape=mxgraph.gcp2.hexIcon;prIcon=container_engine;part=1;labelPosition=right;verticalLabelPosition=middle;align=left;verticalAlign=middle;spacingLeft=5;fontColor=#999999;fontSize=12;" parent="mPMTFJL_Vb9YS9UuzuNP-90" vertex="1">
          <mxGeometry y="0.5" width="44" height="39" relative="1" as="geometry">
            <mxPoint x="5" y="-19.5" as="offset" />
          </mxGeometry>
        </mxCell>
        <mxCell id="mPMTFJL_Vb9YS9UuzuNP-92" value="" style="group" parent="mPMTFJL_Vb9YS9UuzuNP-87" vertex="1" connectable="0">
          <mxGeometry x="50" y="150" width="60" height="60" as="geometry" />
        </mxCell>
        <mxCell id="mPMTFJL_Vb9YS9UuzuNP-93" value="" style="sketch=0;html=1;dashed=0;whitespace=wrap;fillColor=#2875E2;strokeColor=#ffffff;points=[[0.005,0.63,0],[0.1,0.2,0],[0.9,0.2,0],[0.5,0,0],[0.995,0.63,0],[0.72,0.99,0],[0.5,1,0],[0.28,0.99,0]];shape=mxgraph.kubernetes.icon;prIcon=deploy" parent="mPMTFJL_Vb9YS9UuzuNP-92" vertex="1">
          <mxGeometry x="5" width="50" height="48" as="geometry" />
        </mxCell>
        <mxCell id="mPMTFJL_Vb9YS9UuzuNP-94" value="Deployment" style="text;html=1;strokeColor=none;fillColor=none;align=center;verticalAlign=middle;whiteSpace=wrap;rounded=0;" parent="mPMTFJL_Vb9YS9UuzuNP-92" vertex="1">
          <mxGeometry y="48" width="60" height="12" as="geometry" />
        </mxCell>
        <mxCell id="mPMTFJL_Vb9YS9UuzuNP-95" value="" style="group" parent="mPMTFJL_Vb9YS9UuzuNP-87" vertex="1" connectable="0">
          <mxGeometry x="80" y="240" width="60" height="59" as="geometry" />
        </mxCell>
        <mxCell id="mPMTFJL_Vb9YS9UuzuNP-96" value="" style="sketch=0;html=1;dashed=0;whitespace=wrap;fillColor=#2875E2;strokeColor=#ffffff;points=[[0.005,0.63,0],[0.1,0.2,0],[0.9,0.2,0],[0.5,0,0],[0.995,0.63,0],[0.72,0.99,0],[0.5,1,0],[0.28,0.99,0]];shape=mxgraph.kubernetes.icon;prIcon=pod" parent="mPMTFJL_Vb9YS9UuzuNP-95" vertex="1">
          <mxGeometry x="5" width="50" height="48" as="geometry" />
        </mxCell>
        <mxCell id="mPMTFJL_Vb9YS9UuzuNP-97" value="Pod 2" style="text;html=1;strokeColor=none;fillColor=none;align=center;verticalAlign=middle;whiteSpace=wrap;rounded=0;" parent="mPMTFJL_Vb9YS9UuzuNP-95" vertex="1">
          <mxGeometry y="49" width="60" height="10" as="geometry" />
        </mxCell>
        <mxCell id="mPMTFJL_Vb9YS9UuzuNP-98" value="" style="group" parent="mPMTFJL_Vb9YS9UuzuNP-87" vertex="1" connectable="0">
          <mxGeometry x="20" y="240" width="60" height="60" as="geometry" />
        </mxCell>
        <mxCell id="mPMTFJL_Vb9YS9UuzuNP-99" value="" style="sketch=0;html=1;dashed=0;whitespace=wrap;fillColor=#2875E2;strokeColor=#ffffff;points=[[0.005,0.63,0],[0.1,0.2,0],[0.9,0.2,0],[0.5,0,0],[0.995,0.63,0],[0.72,0.99,0],[0.5,1,0],[0.28,0.99,0]];shape=mxgraph.kubernetes.icon;prIcon=pod" parent="mPMTFJL_Vb9YS9UuzuNP-98" vertex="1">
          <mxGeometry x="5" width="50" height="48" as="geometry" />
        </mxCell>
        <mxCell id="mPMTFJL_Vb9YS9UuzuNP-100" value="Pod 1" style="text;html=1;strokeColor=none;fillColor=none;align=center;verticalAlign=middle;whiteSpace=wrap;rounded=0;" parent="mPMTFJL_Vb9YS9UuzuNP-98" vertex="1">
          <mxGeometry y="48" width="60" height="12" as="geometry" />
        </mxCell>
        <mxCell id="mPMTFJL_Vb9YS9UuzuNP-101" value="" style="group" parent="mPMTFJL_Vb9YS9UuzuNP-87" vertex="1" connectable="0">
          <mxGeometry x="38" y="70" width="85" height="58" as="geometry" />
        </mxCell>
        <mxCell id="mPMTFJL_Vb9YS9UuzuNP-102" value="" style="sketch=0;html=1;dashed=0;whitespace=wrap;fillColor=#2875E2;strokeColor=#ffffff;points=[[0.005,0.63,0],[0.1,0.2,0],[0.9,0.2,0],[0.5,0,0],[0.995,0.63,0],[0.72,0.99,0],[0.5,1,0],[0.28,0.99,0]];shape=mxgraph.kubernetes.icon;prIcon=svc" parent="mPMTFJL_Vb9YS9UuzuNP-101" vertex="1">
          <mxGeometry x="17.5" width="50" height="48" as="geometry" />
        </mxCell>
        <mxCell id="mPMTFJL_Vb9YS9UuzuNP-103" value="Cluster IP" style="text;html=1;strokeColor=none;fillColor=none;align=center;verticalAlign=middle;whiteSpace=wrap;rounded=0;" parent="mPMTFJL_Vb9YS9UuzuNP-101" vertex="1">
          <mxGeometry y="48" width="85" height="10" as="geometry" />
        </mxCell>
        <mxCell id="mPMTFJL_Vb9YS9UuzuNP-104" style="edgeStyle=orthogonalEdgeStyle;rounded=0;orthogonalLoop=1;jettySize=auto;html=1;entryX=0.5;entryY=0;entryDx=0;entryDy=0;entryPerimeter=0;" parent="mPMTFJL_Vb9YS9UuzuNP-87" target="mPMTFJL_Vb9YS9UuzuNP-96" edge="1">
          <mxGeometry relative="1" as="geometry">
            <mxPoint x="80" y="213.9999999999999" as="sourcePoint" />
            <Array as="points">
              <mxPoint x="80" y="220" />
              <mxPoint x="110" y="220" />
            </Array>
          </mxGeometry>
        </mxCell>
        <mxCell id="mPMTFJL_Vb9YS9UuzuNP-105" style="edgeStyle=orthogonalEdgeStyle;rounded=0;orthogonalLoop=1;jettySize=auto;html=1;entryX=0.5;entryY=0;entryDx=0;entryDy=0;entryPerimeter=0;" parent="mPMTFJL_Vb9YS9UuzuNP-87" target="mPMTFJL_Vb9YS9UuzuNP-99" edge="1">
          <mxGeometry relative="1" as="geometry">
            <mxPoint x="80" y="218" as="sourcePoint" />
            <Array as="points">
              <mxPoint x="80" y="220" />
              <mxPoint x="50" y="220" />
            </Array>
          </mxGeometry>
        </mxCell>
        <mxCell id="mPMTFJL_Vb9YS9UuzuNP-106" style="edgeStyle=orthogonalEdgeStyle;rounded=0;orthogonalLoop=1;jettySize=auto;html=1;" parent="mPMTFJL_Vb9YS9UuzuNP-87" edge="1">
          <mxGeometry relative="1" as="geometry">
            <mxPoint x="80.5" y="150" as="targetPoint" />
            <mxPoint x="81" y="130" as="sourcePoint" />
          </mxGeometry>
        </mxCell>
        <mxCell id="mPMTFJL_Vb9YS9UuzuNP-203" value="" style="group" parent="uCESpE6ZqwAOXic212Q4-10" vertex="1" connectable="0">
          <mxGeometry x="200" width="222" height="410" as="geometry" />
        </mxCell>
        <mxCell id="mPMTFJL_Vb9YS9UuzuNP-130" value="Generic group" style="fillColor=#EFF0F3;strokeColor=none;dashed=0;verticalAlign=top;fontStyle=0;fontColor=#232F3D;" parent="mPMTFJL_Vb9YS9UuzuNP-203" vertex="1">
          <mxGeometry width="222" height="410" as="geometry" />
        </mxCell>
        <mxCell id="mPMTFJL_Vb9YS9UuzuNP-199" style="edgeStyle=orthogonalEdgeStyle;rounded=0;orthogonalLoop=1;jettySize=auto;html=1;startArrow=none;startFill=0;endArrow=classic;endFill=1;dashed=1;dashPattern=1 1;" parent="mPMTFJL_Vb9YS9UuzuNP-203" edge="1">
          <mxGeometry relative="1" as="geometry">
            <mxPoint x="170.36585365853648" y="330" as="targetPoint" />
            <mxPoint x="170" y="300" as="sourcePoint" />
          </mxGeometry>
        </mxCell>
        <mxCell id="mPMTFJL_Vb9YS9UuzuNP-201" style="edgeStyle=orthogonalEdgeStyle;rounded=0;orthogonalLoop=1;jettySize=auto;html=1;dashed=1;dashPattern=1 1;startArrow=none;startFill=0;endArrow=classic;endFill=1;" parent="mPMTFJL_Vb9YS9UuzuNP-203" edge="1">
          <mxGeometry relative="1" as="geometry">
            <mxPoint x="110" y="330" as="targetPoint" />
            <mxPoint x="110" y="300" as="sourcePoint" />
          </mxGeometry>
        </mxCell>
        <mxCell id="mPMTFJL_Vb9YS9UuzuNP-202" style="edgeStyle=orthogonalEdgeStyle;rounded=0;orthogonalLoop=1;jettySize=auto;html=1;dashed=1;dashPattern=1 1;startArrow=none;startFill=0;endArrow=classic;endFill=1;" parent="mPMTFJL_Vb9YS9UuzuNP-203" edge="1">
          <mxGeometry relative="1" as="geometry">
            <mxPoint x="50" y="330" as="targetPoint" />
            <mxPoint x="50" y="300" as="sourcePoint" />
          </mxGeometry>
        </mxCell>
        <mxCell id="mPMTFJL_Vb9YS9UuzuNP-136" value="" style="group" parent="mPMTFJL_Vb9YS9UuzuNP-203" vertex="1" connectable="0">
          <mxGeometry x="80" y="240" width="60" height="59" as="geometry" />
        </mxCell>
        <mxCell id="mPMTFJL_Vb9YS9UuzuNP-137" value="" style="sketch=0;html=1;dashed=0;whitespace=wrap;fillColor=#2875E2;strokeColor=#ffffff;points=[[0.005,0.63,0],[0.1,0.2,0],[0.9,0.2,0],[0.5,0,0],[0.995,0.63,0],[0.72,0.99,0],[0.5,1,0],[0.28,0.99,0]];shape=mxgraph.kubernetes.icon;prIcon=pod" parent="mPMTFJL_Vb9YS9UuzuNP-136" vertex="1">
          <mxGeometry x="5" width="50" height="48" as="geometry" />
        </mxCell>
        <mxCell id="mPMTFJL_Vb9YS9UuzuNP-138" value="Source 2" style="text;html=1;strokeColor=none;fillColor=none;align=center;verticalAlign=middle;whiteSpace=wrap;rounded=0;" parent="mPMTFJL_Vb9YS9UuzuNP-136" vertex="1">
          <mxGeometry y="49" width="60" height="10" as="geometry" />
        </mxCell>
        <mxCell id="mPMTFJL_Vb9YS9UuzuNP-139" value="" style="group" parent="mPMTFJL_Vb9YS9UuzuNP-203" vertex="1" connectable="0">
          <mxGeometry x="20" y="240" width="60" height="60" as="geometry" />
        </mxCell>
        <mxCell id="mPMTFJL_Vb9YS9UuzuNP-140" value="" style="sketch=0;html=1;dashed=0;whitespace=wrap;fillColor=#2875E2;strokeColor=#ffffff;points=[[0.005,0.63,0],[0.1,0.2,0],[0.9,0.2,0],[0.5,0,0],[0.995,0.63,0],[0.72,0.99,0],[0.5,1,0],[0.28,0.99,0]];shape=mxgraph.kubernetes.icon;prIcon=pod" parent="mPMTFJL_Vb9YS9UuzuNP-139" vertex="1">
          <mxGeometry x="5" width="50" height="48" as="geometry" />
        </mxCell>
        <mxCell id="mPMTFJL_Vb9YS9UuzuNP-141" value="Source 1" style="text;html=1;strokeColor=none;fillColor=none;align=center;verticalAlign=middle;whiteSpace=wrap;rounded=0;" parent="mPMTFJL_Vb9YS9UuzuNP-139" vertex="1">
          <mxGeometry y="48" width="60" height="12" as="geometry" />
        </mxCell>
        <mxCell id="mPMTFJL_Vb9YS9UuzuNP-186" style="edgeStyle=orthogonalEdgeStyle;rounded=0;orthogonalLoop=1;jettySize=auto;html=1;startArrow=classic;startFill=1;endArrow=none;endFill=0;" parent="mPMTFJL_Vb9YS9UuzuNP-203" source="mPMTFJL_Vb9YS9UuzuNP-140" edge="1">
          <mxGeometry as="geometry">
            <mxPoint x="115" y="220" as="targetPoint" />
            <Array as="points">
              <mxPoint x="50" y="220" />
            </Array>
          </mxGeometry>
        </mxCell>
        <mxCell id="mPMTFJL_Vb9YS9UuzuNP-187" style="edgeStyle=orthogonalEdgeStyle;rounded=0;orthogonalLoop=1;jettySize=auto;html=1;startArrow=classic;startFill=1;endArrow=none;endFill=0;" parent="mPMTFJL_Vb9YS9UuzuNP-203" source="mPMTFJL_Vb9YS9UuzuNP-137" edge="1">
          <mxGeometry as="geometry">
            <mxPoint x="110" y="210" as="targetPoint" />
            <Array as="points">
              <mxPoint x="110" y="220" />
              <mxPoint x="110" y="220" />
            </Array>
          </mxGeometry>
        </mxCell>
        <mxCell id="mPMTFJL_Vb9YS9UuzuNP-196" style="edgeStyle=orthogonalEdgeStyle;rounded=0;orthogonalLoop=1;jettySize=auto;html=1;startArrow=none;startFill=0;endArrow=classic;endFill=1;" parent="mPMTFJL_Vb9YS9UuzuNP-203" edge="1">
          <mxGeometry as="geometry">
            <mxPoint x="110.30902439024396" y="150" as="targetPoint" />
            <mxPoint x="110" y="130" as="sourcePoint" />
          </mxGeometry>
        </mxCell>
        <mxCell id="mPMTFJL_Vb9YS9UuzuNP-131" value="" style="strokeColor=#dddddd;shadow=1;strokeWidth=1;rounded=1;absoluteArcSize=1;arcSize=2;" parent="mPMTFJL_Vb9YS9UuzuNP-203" vertex="1">
          <mxGeometry width="220" height="62" as="geometry" />
        </mxCell>
        <mxCell id="mPMTFJL_Vb9YS9UuzuNP-132" value="&lt;font color=&quot;#000000&quot;&gt;&lt;span&gt;Redis Cluster&lt;/span&gt;&lt;/font&gt;&lt;br&gt;redis&amp;nbsp;" style="sketch=0;dashed=0;connectable=0;html=1;fillColor=#5184F3;strokeColor=none;shape=mxgraph.gcp2.hexIcon;prIcon=container_engine;part=1;labelPosition=right;verticalLabelPosition=middle;align=left;verticalAlign=middle;spacingLeft=5;fontColor=#999999;fontSize=12;" parent="mPMTFJL_Vb9YS9UuzuNP-131" vertex="1">
          <mxGeometry y="0.5" width="44" height="39" relative="1" as="geometry">
            <mxPoint x="5" y="-19.5" as="offset" />
          </mxGeometry>
        </mxCell>
        <mxCell id="mPMTFJL_Vb9YS9UuzuNP-148" value="" style="sketch=0;html=1;dashed=0;whitespace=wrap;fillColor=#2875E2;strokeColor=#ffffff;points=[[0.005,0.63,0],[0.1,0.2,0],[0.9,0.2,0],[0.5,0,0],[0.995,0.63,0],[0.72,0.99,0],[0.5,1,0],[0.28,0.99,0]];shape=mxgraph.kubernetes.icon;prIcon=sts" parent="mPMTFJL_Vb9YS9UuzuNP-203" vertex="1">
          <mxGeometry x="85.00414634146341" y="150" width="50.60975609756098" height="48" as="geometry" />
        </mxCell>
        <mxCell id="mPMTFJL_Vb9YS9UuzuNP-149" value="" style="group" parent="mPMTFJL_Vb9YS9UuzuNP-203" vertex="1" connectable="0">
          <mxGeometry x="140" y="240" width="60.73170731707317" height="59" as="geometry" />
        </mxCell>
        <mxCell id="mPMTFJL_Vb9YS9UuzuNP-150" value="" style="sketch=0;html=1;dashed=0;whitespace=wrap;fillColor=#2875E2;strokeColor=#ffffff;points=[[0.005,0.63,0],[0.1,0.2,0],[0.9,0.2,0],[0.5,0,0],[0.995,0.63,0],[0.72,0.99,0],[0.5,1,0],[0.28,0.99,0]];shape=mxgraph.kubernetes.icon;prIcon=pod" parent="mPMTFJL_Vb9YS9UuzuNP-149" vertex="1">
          <mxGeometry x="5.060975609756098" width="50.60975609756098" height="48" as="geometry" />
        </mxCell>
        <mxCell id="mPMTFJL_Vb9YS9UuzuNP-151" value="Source 3" style="text;html=1;strokeColor=none;fillColor=none;align=center;verticalAlign=middle;whiteSpace=wrap;rounded=0;" parent="mPMTFJL_Vb9YS9UuzuNP-149" vertex="1">
          <mxGeometry y="49" width="60.73170731707317" height="10" as="geometry" />
        </mxCell>
        <mxCell id="mPMTFJL_Vb9YS9UuzuNP-135" value="StatefulSet" style="text;html=1;strokeColor=none;fillColor=none;align=center;verticalAlign=middle;whiteSpace=wrap;rounded=0;" parent="mPMTFJL_Vb9YS9UuzuNP-203" vertex="1">
          <mxGeometry x="79.94317073170737" y="198" width="60.73170731707317" height="12" as="geometry" />
        </mxCell>
        <mxCell id="mPMTFJL_Vb9YS9UuzuNP-191" style="edgeStyle=orthogonalEdgeStyle;rounded=0;orthogonalLoop=1;jettySize=auto;html=1;startArrow=classic;startFill=1;endArrow=none;endFill=0;entryX=0.5;entryY=1;entryDx=0;entryDy=0;" parent="mPMTFJL_Vb9YS9UuzuNP-203" source="mPMTFJL_Vb9YS9UuzuNP-150" target="mPMTFJL_Vb9YS9UuzuNP-135" edge="1">
          <mxGeometry as="geometry">
            <mxPoint x="200" y="210" as="targetPoint" />
            <Array as="points">
              <mxPoint x="170" y="220" />
              <mxPoint x="110" y="220" />
              <mxPoint x="110" y="210" />
            </Array>
          </mxGeometry>
        </mxCell>
        <mxCell id="mPMTFJL_Vb9YS9UuzuNP-142" value="" style="group" parent="mPMTFJL_Vb9YS9UuzuNP-203" vertex="1" connectable="0">
          <mxGeometry x="67.2907317073171" y="70" width="86.03658536585368" height="58" as="geometry" />
        </mxCell>
        <mxCell id="mPMTFJL_Vb9YS9UuzuNP-143" value="" style="sketch=0;html=1;dashed=0;whitespace=wrap;fillColor=#2875E2;strokeColor=#ffffff;points=[[0.005,0.63,0],[0.1,0.2,0],[0.9,0.2,0],[0.5,0,0],[0.995,0.63,0],[0.72,0.99,0],[0.5,1,0],[0.28,0.99,0]];shape=mxgraph.kubernetes.icon;prIcon=svc" parent="mPMTFJL_Vb9YS9UuzuNP-142" vertex="1">
          <mxGeometry x="17.713414634146343" width="50.60975609756098" height="48" as="geometry" />
        </mxCell>
        <mxCell id="mPMTFJL_Vb9YS9UuzuNP-144" value="Cluster IP" style="text;html=1;strokeColor=none;fillColor=none;align=center;verticalAlign=middle;whiteSpace=wrap;rounded=0;" parent="mPMTFJL_Vb9YS9UuzuNP-142" vertex="1">
          <mxGeometry y="48" width="86.03658536585368" height="10" as="geometry" />
        </mxCell>
        <mxCell id="mPMTFJL_Vb9YS9UuzuNP-176" value="" style="group" parent="mPMTFJL_Vb9YS9UuzuNP-203" vertex="1" connectable="0">
          <mxGeometry x="20" y="330" width="60.73170731707317" height="59" as="geometry" />
        </mxCell>
        <mxCell id="mPMTFJL_Vb9YS9UuzuNP-177" value="" style="sketch=0;html=1;dashed=0;whitespace=wrap;fillColor=#2875E2;strokeColor=#ffffff;points=[[0.005,0.63,0],[0.1,0.2,0],[0.9,0.2,0],[0.5,0,0],[0.995,0.63,0],[0.72,0.99,0],[0.5,1,0],[0.28,0.99,0]];shape=mxgraph.kubernetes.icon;prIcon=pod" parent="mPMTFJL_Vb9YS9UuzuNP-176" vertex="1">
          <mxGeometry x="5.060975609756098" width="50.60975609756098" height="48" as="geometry" />
        </mxCell>
        <mxCell id="mPMTFJL_Vb9YS9UuzuNP-178" value="Replica 1&amp;nbsp;" style="text;html=1;strokeColor=none;fillColor=none;align=center;verticalAlign=middle;whiteSpace=wrap;rounded=0;" parent="mPMTFJL_Vb9YS9UuzuNP-176" vertex="1">
          <mxGeometry y="49" width="60.73170731707317" height="10" as="geometry" />
        </mxCell>
        <mxCell id="mPMTFJL_Vb9YS9UuzuNP-179" value="" style="group" parent="mPMTFJL_Vb9YS9UuzuNP-203" vertex="1" connectable="0">
          <mxGeometry x="80" y="330" width="60.73170731707317" height="59" as="geometry" />
        </mxCell>
        <mxCell id="mPMTFJL_Vb9YS9UuzuNP-180" value="" style="sketch=0;html=1;dashed=0;whitespace=wrap;fillColor=#2875E2;strokeColor=#ffffff;points=[[0.005,0.63,0],[0.1,0.2,0],[0.9,0.2,0],[0.5,0,0],[0.995,0.63,0],[0.72,0.99,0],[0.5,1,0],[0.28,0.99,0]];shape=mxgraph.kubernetes.icon;prIcon=pod" parent="mPMTFJL_Vb9YS9UuzuNP-179" vertex="1">
          <mxGeometry x="5.060975609756098" width="50.60975609756098" height="48" as="geometry" />
        </mxCell>
        <mxCell id="mPMTFJL_Vb9YS9UuzuNP-181" value="Replica 2" style="text;html=1;strokeColor=none;fillColor=none;align=center;verticalAlign=middle;whiteSpace=wrap;rounded=0;" parent="mPMTFJL_Vb9YS9UuzuNP-179" vertex="1">
          <mxGeometry y="49" width="60.73170731707317" height="10" as="geometry" />
        </mxCell>
        <mxCell id="mPMTFJL_Vb9YS9UuzuNP-182" value="" style="group" parent="mPMTFJL_Vb9YS9UuzuNP-203" vertex="1" connectable="0">
          <mxGeometry x="140" y="330" width="60.73170731707317" height="59" as="geometry" />
        </mxCell>
        <mxCell id="mPMTFJL_Vb9YS9UuzuNP-183" value="" style="sketch=0;html=1;dashed=0;whitespace=wrap;fillColor=#2875E2;strokeColor=#ffffff;points=[[0.005,0.63,0],[0.1,0.2,0],[0.9,0.2,0],[0.5,0,0],[0.995,0.63,0],[0.72,0.99,0],[0.5,1,0],[0.28,0.99,0]];shape=mxgraph.kubernetes.icon;prIcon=pod" parent="mPMTFJL_Vb9YS9UuzuNP-182" vertex="1">
          <mxGeometry x="5.060975609756098" width="50.60975609756098" height="48" as="geometry" />
        </mxCell>
        <mxCell id="mPMTFJL_Vb9YS9UuzuNP-184" value="Replica 3" style="text;html=1;strokeColor=none;fillColor=none;align=center;verticalAlign=middle;whiteSpace=wrap;rounded=0;" parent="mPMTFJL_Vb9YS9UuzuNP-182" vertex="1">
          <mxGeometry y="49" width="60.73170731707317" height="10" as="geometry" />
        </mxCell>
        <mxCell id="uCESpE6ZqwAOXic212Q4-9" style="edgeStyle=orthogonalEdgeStyle;rounded=0;orthogonalLoop=1;jettySize=auto;html=1;" edge="1" parent="uCESpE6ZqwAOXic212Q4-10" source="mPMTFJL_Vb9YS9UuzuNP-89">
          <mxGeometry relative="1" as="geometry">
            <mxPoint x="200" y="205" as="targetPoint" />
          </mxGeometry>
        </mxCell>
        <mxCell id="uCESpE6ZqwAOXic212Q4-13" style="edgeStyle=orthogonalEdgeStyle;rounded=0;orthogonalLoop=1;jettySize=auto;html=1;entryX=0;entryY=0.5;entryDx=0;entryDy=0;" edge="1" parent="1" source="mPMTFJL_Vb9YS9UuzuNP-65" target="mPMTFJL_Vb9YS9UuzuNP-301">
          <mxGeometry relative="1" as="geometry">
            <Array as="points">
              <mxPoint x="-690" y="225" />
            </Array>
          </mxGeometry>
        </mxCell>
      </root>
    </mxGraphModel>
  </diagram>
</mxfile>
